<svg width="24" height="25" viewBox="0 0 24 25" fill="none" xmlns="http://www.w3.org/2000/svg">
<path d="M21.5 9.5V19.5M5.5 9.5V19.5M2.5 9.5V19.5M18.5 9.5V19.5M2 21.5H22M0 24H24M12 11.5H11C10.7348 11.5 10.4804 11.6054 10.2929 11.7929C10.1054 11.9804 10 12.2348 10 12.5V12.875C10 13.0914 10.0702 13.3019 10.2 13.475C10.3298 13.6481 10.5123 13.7744 10.72 13.835L13.28 14.582C13.4877 14.6426 13.6702 14.7689 13.8 14.942C13.9298 15.1151 14 15.3256 14 15.542V16.5C14 16.7652 13.8946 17.0196 13.7071 17.2071C13.5196 17.3946 13.2652 17.5 13 17.5H12M12 11.5H13C13.2652 11.5 13.5196 11.6054 13.7071 11.7929C13.8946 11.9804 14 12.2348 14 12.5V13M12 11.5V9.5M12 17.5H11C10.7348 17.5 10.4804 17.3946 10.2929 17.2071C10.1054 17.0196 10 16.7652 10 16.5V16M12 17.5V19.5M23.5 6.75V7.5H0.5V6.75C5.5 5 8.5 3.5 11.75 1H12.25C15.5 3.5 18.5 5 23.5 6.75Z" stroke="#77E200"/>
</svg>
