<svg width="95" height="187" viewBox="0 0 95 187" fill="none" xmlns="http://www.w3.org/2000/svg">
<path d="M89.5182 158.792C85.5342 156.618 77.42 157.306 70.2418 158.569C60.9897 160.179 52.0141 163.239 43.8816 167.924C37.7844 171.438 31.2056 176.141 28.3992 181.283M28.3992 181.283C31.2056 176.141 31.6044 168.058 31.2578 161.035C30.7933 151.657 28.5106 142.453 24.8701 133.807C22.0428 127.084 18.2267 119.884 14.2481 117.713M28.3992 181.283L62.1574 119.427C81.6108 83.7818 68.4957 39.1161 32.866 19.6711C32.866 19.6711 16.482 10.7294 5.98389 5" stroke="url(#paint0_linear_85_54)" stroke-width="10" stroke-linecap="round" stroke-linejoin="round"/>
<defs>
<linearGradient id="paint0_linear_85_54" x1="15.5767" y1="5.00488" x2="36.0767" y2="172.005" gradientUnits="userSpaceOnUse">
<stop stop-color="#437C00"/>
<stop offset="1" stop-color="#7AE200"/>
</linearGradient>
</defs>
</svg>
