<svg width="23" height="22" viewBox="0 0 23 22" fill="none" xmlns="http://www.w3.org/2000/svg">
<path d="M20.8077 3.66667H16.5769V2.75C16.5769 2.02065 16.3095 1.32118 15.8334 0.805456C15.3574 0.289731 14.7117 0 14.0385 0H8.96154C8.2883 0 7.64263 0.289731 7.16657 0.805456C6.69052 1.32118 6.42308 2.02065 6.42308 2.75V3.66667H2.19231C1.74348 3.66667 1.31303 3.85982 0.995665 4.20364C0.678296 4.54745 0.5 5.01377 0.5 5.5V20.1667C0.5 20.6529 0.678296 21.1192 0.995665 21.463C1.31303 21.8068 1.74348 22 2.19231 22H20.8077C21.2565 22 21.687 21.8068 22.0043 21.463C22.3217 21.1192 22.5 20.6529 22.5 20.1667V5.5C22.5 5.01377 22.3217 4.54745 22.0043 4.20364C21.687 3.85982 21.2565 3.66667 20.8077 3.66667ZM8.11538 2.75C8.11538 2.50688 8.20453 2.27373 8.36322 2.10182C8.5219 1.92991 8.73712 1.83333 8.96154 1.83333H14.0385C14.2629 1.83333 14.4781 1.92991 14.6368 2.10182C14.7955 2.27373 14.8846 2.50688 14.8846 2.75V3.66667H8.11538V2.75ZM14.8846 5.5V20.1667H8.11538V5.5H14.8846ZM2.19231 5.5H6.42308V20.1667H2.19231V5.5ZM20.8077 20.1667H16.5769V5.5H20.8077V20.1667Z" fill="#0E0F0C"/>
</svg>
