<svg width="46" height="46" viewBox="0 0 46 46" fill="none" xmlns="http://www.w3.org/2000/svg">
<path d="M46 23.0001C46 10.2976 35.7026 0.000110626 23 0.000110626C10.2974 0.000110626 0 10.2976 0 23.0001C0 34.4801 8.41077 43.9952 19.4062 45.7207V29.6486H13.5664V23.0001H19.4062V17.9329C19.4062 12.1685 22.84 8.98449 28.0937 8.98449C30.6101 8.98449 33.2422 9.4337 33.2422 9.4337V15.0939H30.3419C27.4848 15.0939 26.5938 16.8668 26.5938 18.6857V23.0001H32.9727L31.9529 29.6486H26.5938V45.7207C37.5892 43.9952 46 34.4801 46 23.0001Z" fill="#878C75"/>
<path d="M31.9529 29.6484L32.9727 23H26.5938V18.6856C26.5938 16.8667 27.4848 15.0938 30.3419 15.0938H33.2422V9.43359C33.2422 9.43359 30.6101 8.98438 28.0937 8.98438C22.84 8.98438 19.4063 12.1684 19.4063 17.9328V23H13.5664V29.6484H19.4063V45.7206C20.5772 45.9043 21.7774 46 23 46C24.2226 46 25.4228 45.9043 26.5938 45.7206V29.6484H31.9529Z" fill="#E7E7E0"/>
</svg>
