<svg width="91" height="46" viewBox="0 0 91 46" fill="none" xmlns="http://www.w3.org/2000/svg">
<path d="M38.885 0.09589C34.6123 0.583912 30.8973 2.66548 27.7899 6.30075C26.2063 8.15325 24.2841 11.2109 23.2184 13.5912L22.84 14.4278L22.1328 14.4378C21.7544 14.4478 18.647 14.4478 15.2308 14.4478L9.02594 14.4577L7.96025 16.5592C7.37263 17.7145 6.88461 18.6906 6.86469 18.7304C6.84477 18.7802 10.0119 18.8101 13.9062 18.8101C17.8004 18.8101 20.9875 18.82 20.9875 18.84C20.9875 18.8499 20.6787 19.577 20.3102 20.4534L19.633 22.047L11.4661 22.0768L3.3091 22.0968L2.20357 24.2182L1.10801 26.3296L9.56376 26.3595C16.2666 26.3794 18.0095 26.4093 17.9697 26.5089C17.9398 26.5686 17.5016 27.6144 17.0036 28.8195C15.8284 31.6182 14.9818 33.3213 14.0655 34.6957C12.2529 37.4147 10.5398 38.819 8.28892 39.4365C7.64154 39.6158 7.31288 39.6457 6.44639 39.6058C5.55002 39.566 5.23131 39.4963 4.16563 39.1377C3.48837 38.9087 2.93063 38.7294 2.91071 38.7493C2.88083 38.7891 1.59603 41.4384 1.00842 42.6933L0.57019 43.6196L1.09805 43.8586C3.18958 44.8147 6.6655 44.8147 9.93227 43.8486C11.0876 43.51 13.3584 42.3647 14.5137 41.548C15.7587 40.6616 17.9398 38.4704 19.0254 37.0163C21.0074 34.377 22.2723 31.9369 24.5032 26.479C25.3 24.5369 26.3358 22.027 26.794 20.9016L27.6306 18.8599L31.4053 18.83L35.18 18.8001L36.2556 16.7285C36.8433 15.5832 37.3213 14.6071 37.3213 14.5573C37.3213 14.4876 35.8572 14.4577 33.3275 14.4677C31.1364 14.4776 29.3138 14.4478 29.2938 14.4179C29.2241 14.2984 31.0268 10.8424 31.6642 9.88623C33.6761 6.86845 35.8174 5.30479 38.4169 4.9562C39.4029 4.82673 40.2993 4.94624 41.604 5.40438C42.1219 5.58366 42.6298 5.76293 42.7194 5.80277C42.8489 5.86253 43.0481 5.6235 43.7254 4.59765C44.1835 3.90047 44.8608 2.85471 45.2392 2.28701C46.0261 1.11177 46.036 1.16157 45.0002 0.773144C43.1676 0.0859299 41.0163 -0.153103 38.885 0.09589Z" fill="#CCCEC1"/>
<path d="M47.4304 10.5137C44.0839 10.932 41.4546 12.9439 40.7574 15.623C40.5184 16.5592 40.5283 17.7245 40.7972 18.5213C41.2355 19.836 41.8131 20.4037 44.0839 21.7084C46.2053 22.9334 46.6037 23.2023 47.1615 23.7302C47.8288 24.3576 48.008 24.7859 47.9582 25.6026C47.8586 26.8874 47.1216 27.8834 45.8069 28.5009C45.2392 28.7698 45.0002 28.8196 44.1736 28.8495C43.3867 28.8893 43.078 28.8495 42.4804 28.6702C41.3849 28.3415 40.1698 27.6842 39.5423 27.0866L39.3232 26.8774L38.7854 27.7539C37.3114 30.1542 37.1918 30.3832 37.3313 30.4828C37.7894 30.7916 39.373 31.4888 40.0303 31.6481C42.8788 32.3752 45.9763 32.0266 48.2769 30.7318C49.1733 30.2338 50.6872 28.7698 51.0856 28.0228C51.8525 26.5787 52.1712 24.5568 51.8126 23.3418C51.5935 22.5649 51.2847 22.047 50.6971 21.4893C50.1991 21.0112 49.8804 20.812 47.6993 19.5969C45.2094 18.2125 44.552 17.5552 44.562 16.4198C44.5719 15.6927 44.8409 15.0852 45.3687 14.6071C46.5041 13.5813 48.2471 13.2925 49.9203 13.8502C50.5975 14.0693 51.0059 14.2984 51.7031 14.8462C51.972 15.0553 52.221 15.2246 52.2508 15.2246C52.3206 15.2246 53.9739 12.2069 54.0336 11.9778C54.0635 11.8483 52.7488 11.2707 51.6931 10.942C50.3386 10.5237 48.6654 10.3544 47.4304 10.5137Z" fill="#CCCEC1"/>
<path d="M66.5928 10.5436C65.3877 10.7329 64.322 11.0715 63.2663 11.5894C58.6351 13.8702 55.7468 19.1986 55.9758 25.0748C56.0356 26.6384 56.185 27.2958 56.7626 28.471C57.5295 30.0347 59.0434 31.2498 60.7764 31.7079C62.8281 32.2457 65.6367 32.0864 67.9971 31.2996C68.5648 31.1103 69.0429 30.941 69.0628 30.9311C69.0728 30.9111 69.2022 30.1841 69.3417 29.3076C69.4811 28.4411 69.6206 27.5946 69.6504 27.4352L69.7102 27.1563L68.8835 27.6045C66.9016 28.6702 64.6706 29.1084 63.1767 28.72C61.7723 28.3515 60.617 27.236 60.0792 25.7222C59.8203 24.9752 59.7705 23.2621 59.9696 21.9674C60.378 19.3978 61.3341 17.4656 63.0571 15.7725C64.4216 14.408 65.8259 13.7606 67.7979 13.5813C69.1126 13.4618 70.8456 13.8104 71.7021 14.3781L72.0706 14.6271L72.1901 14.1988C72.2499 13.9698 72.4292 13.3025 72.5885 12.7049C72.7479 12.1173 72.8774 11.5894 72.8774 11.5296C72.8774 11.3802 71.9312 10.9719 71.0249 10.7329C70.1285 10.5038 67.5489 10.3942 66.5928 10.5436Z" fill="#CCCEC1"/>
<path d="M83.0162 10.5935C81.5023 10.8524 79.9685 11.5396 78.8431 12.4759C76.7615 14.2088 76.0644 17.1768 77.2396 19.3381C77.6579 20.1149 78.375 20.6826 80.3271 21.7981C83.4245 23.5709 84.042 24.1785 84.042 25.3935C84.042 27.4054 82.3489 28.8694 80.0084 28.8694C79.5502 28.8694 78.9527 28.7997 78.6439 28.7101C77.7973 28.4611 76.5125 27.8137 75.9349 27.3357L75.3971 26.8974L74.3613 28.6005C73.7936 29.5268 73.3155 30.3236 73.2956 30.3634C73.2557 30.463 74.7497 31.21 75.4668 31.459C78.1061 32.3553 81.4027 32.1761 83.7831 31.0207C86.532 29.6762 88.0159 27.4353 88.0259 24.5868C88.0359 23.5112 87.8367 22.8339 87.2789 22.0272C86.8308 21.3798 86.3427 21.0312 84.0918 19.7763C82.0999 18.6508 81.3729 18.1429 80.9446 17.5453C80.7354 17.2366 80.6956 17.0872 80.6956 16.4199C80.6956 15.7426 80.7255 15.6032 80.9944 15.165C81.841 13.8005 83.9524 13.2228 85.8945 13.8105C86.5618 14.0196 87.9164 14.8064 88.2151 15.1749C88.3247 15.3144 88.4741 15.0853 89.2709 13.6113L90.1971 11.8882L89.6792 11.6592C87.2889 10.5935 85.0878 10.2449 83.0162 10.5935Z" fill="#CCCEC1"/>
<path d="M25.8478 35.2535C25.6287 35.373 25.6187 35.6718 25.808 35.8311C26.0072 36.0005 26.4753 35.9307 26.6047 35.7116C26.8338 35.3431 26.2661 34.9945 25.8478 35.2535Z" fill="#CCCEC1"/>
<path d="M41.3251 35.2635C41.1557 35.4328 41.1757 35.8113 41.3649 35.881C41.7932 36.0503 42.2015 35.8711 42.2015 35.5225C42.2015 35.2038 41.5741 35.0145 41.3251 35.2635Z" fill="#CCCEC1"/>
<path d="M46.3845 37.3351V39.5262H46.8327H47.2809V37.3351V35.144H46.8327H46.3845V37.3351Z" fill="#CCCEC1"/>
<path d="M62.2403 35.2635C62.071 35.4328 62.091 35.8113 62.2802 35.881C62.7084 36.0503 63.1168 35.8711 63.1168 35.5225C63.1168 35.2038 62.4893 35.0145 62.2403 35.2635Z" fill="#CCCEC1"/>
<path d="M50.2987 35.4428C49.6912 35.632 49.4123 36.3093 49.6613 36.9766C49.7211 37.106 50.0995 37.4746 50.5079 37.7733C50.9262 38.0821 51.2648 38.4008 51.2648 38.4705C51.2648 38.9087 50.5776 39.0581 49.9003 38.7793C49.4422 38.59 49.4721 38.5701 49.4721 38.9785C49.4721 39.4167 49.7011 39.5262 50.6274 39.5262C51.4341 39.5262 51.8226 39.337 52.0317 38.8589C52.3205 38.1518 52.0417 37.5841 51.1154 37.0264C50.5278 36.6778 50.3684 36.4288 50.5776 36.1798C50.7071 36.0204 51.3445 36.0304 51.8425 36.1898C52.0417 36.2595 52.0616 36.2296 52.0616 35.9109C52.0616 35.7117 52.0217 35.5324 51.962 35.4926C51.7827 35.383 50.6174 35.3531 50.2987 35.4428Z" fill="#CCCEC1"/>
<path d="M22.7802 37.4845V39.5262H23.2781H23.7761V38.6797V37.8331H24.3737H24.9713V37.4845V37.1359H24.3737H23.7761V36.6379V36.1499L24.5032 36.12L25.2203 36.0902L25.2501 35.7615L25.28 35.4428H24.0351H22.7802V37.4845Z" fill="#CCCEC1"/>
<path d="M28.8158 36.4088C28.776 36.4486 28.4672 36.4686 28.1087 36.4586L27.4812 36.4287L27.4912 37.9525L27.5111 39.4764L27.9294 39.5063L28.3377 39.5361L28.3776 38.3908C28.4074 37.1657 28.4672 37.0064 28.9054 37.0064C29.4034 37.0064 29.4831 37.2056 29.4731 38.4207L29.4632 39.5262H29.9114H30.3496V38.1916V36.857L30.0408 36.598C29.8217 36.4088 29.6225 36.3391 29.3138 36.3391C29.0747 36.3391 28.8556 36.369 28.8158 36.4088Z" fill="#CCCEC1"/>
<path d="M31.475 36.4487C31.1862 36.5284 31.1463 36.5881 31.1463 36.8869C31.1463 37.2754 31.1862 37.2953 31.5447 37.0861C31.8236 36.9268 32.5207 36.8969 32.7299 37.0264C32.9789 37.1857 32.7897 37.3451 32.0925 37.5841C31.2061 37.8829 30.9073 38.2016 30.977 38.7693C31.0567 39.3171 31.3256 39.5262 31.963 39.5262C32.2319 39.5262 32.5407 39.4764 32.6403 39.4266C32.7697 39.3569 32.8494 39.3569 32.8893 39.4266C32.9191 39.4764 33.1283 39.5262 33.3474 39.5262H33.7358V38.2713C33.7358 37.5642 33.686 36.9367 33.6263 36.8172C33.3972 36.3989 32.3016 36.2097 31.475 36.4487ZM32.8395 38.3211C32.8395 38.7594 32.5705 39.0482 32.2419 38.9585C31.7339 38.8291 31.7539 38.361 32.2718 38.102C32.7697 37.863 32.8395 37.8829 32.8395 38.3211Z" fill="#CCCEC1"/>
<path d="M35.7975 36.3989C35.7477 36.4487 35.4489 36.4686 35.1202 36.4587L34.5326 36.4288V37.9725V39.5262H34.9808H35.429V38.3908C35.429 37.1558 35.4887 37.0065 35.9967 37.0065C36.4349 37.0065 36.5245 37.2554 36.5245 38.4506V39.5262H36.9727H37.4209V38.2414C37.4209 37.0264 37.4109 36.9268 37.1918 36.6778C37.0026 36.4587 36.8532 36.3989 36.415 36.3591C36.1162 36.3392 35.8373 36.3591 35.7975 36.3989Z" fill="#CCCEC1"/>
<path d="M38.8252 36.5184C38.3073 36.7774 38.0882 37.1459 38.0384 37.8132C37.9587 38.9386 38.4667 39.5262 39.5224 39.5262C39.8311 39.5262 40.2196 39.4764 40.3988 39.4167C40.6478 39.3271 40.7076 39.2573 40.7076 39.0083C40.7076 38.7394 40.6777 38.7096 40.4885 38.7793C40.359 38.8191 40.1 38.8689 39.9108 38.8988C39.2634 38.9884 38.8053 38.3709 38.9646 37.6339C39.0842 37.106 39.6021 36.9069 40.3889 37.0861C40.7175 37.1558 40.7175 37.1459 40.6877 36.8272C40.6677 36.5682 40.598 36.4786 40.4088 36.4288C39.9307 36.2993 39.1638 36.3392 38.8252 36.5184Z" fill="#CCCEC1"/>
<path d="M41.2454 36.4288C41.2255 36.4487 41.2056 37.1558 41.2056 38.0024V39.5262H41.6538H42.1019V37.9526V36.389H41.6936C41.4745 36.389 41.2653 36.4089 41.2454 36.4288Z" fill="#CCCEC1"/>
<path d="M43.3269 36.4487C43.0381 36.5284 42.9983 36.5881 42.9983 36.8869V37.2256L43.3568 37.0762C43.556 36.9965 43.9046 36.9367 44.1237 36.9567C44.4623 36.9766 44.542 37.0264 44.542 37.1758C44.542 37.3351 44.4125 37.4148 43.9345 37.5542C43.1178 37.7933 42.7991 38.102 42.7991 38.6299C42.7991 39.2275 43.1277 39.5262 43.795 39.5262C44.0739 39.5262 44.3926 39.4764 44.5022 39.4266C44.6316 39.3569 44.6914 39.3569 44.6914 39.4266C44.6914 39.4764 44.8707 39.5262 45.0798 39.5262H45.4683L45.538 38.7693C45.6475 37.6837 45.538 36.9467 45.2392 36.6379C45.03 36.4388 44.8806 36.389 44.3229 36.369C43.9444 36.3591 43.4962 36.389 43.3269 36.4487ZM44.5918 38.3809C44.5918 38.7594 44.552 38.849 44.3727 38.9187C44.0142 39.0482 43.7452 38.8988 43.7452 38.5701C43.7452 38.341 43.815 38.2414 44.0938 38.112C44.2831 38.0124 44.4723 37.9327 44.5221 37.9327C44.5619 37.9327 44.5918 38.1319 44.5918 38.3809Z" fill="#CCCEC1"/>
<path d="M53.3663 36.5184C52.8883 36.7774 52.6592 37.2554 52.6592 37.9626C52.6592 38.61 52.8285 39.0083 53.2169 39.3171C53.436 39.4864 53.6253 39.5262 54.2129 39.5262C55.179 39.5262 55.4479 39.4167 55.4479 39.0283C55.4479 38.7096 55.3582 38.6697 55.0296 38.839C54.7308 38.9984 54.0834 38.9685 53.7946 38.7793C53.6452 38.6896 53.5555 38.5303 53.5555 38.3809V38.1319H54.6113H55.677L55.6172 37.6737C55.5973 37.4148 55.4877 37.0961 55.3782 36.9467C54.9499 36.369 54.0137 36.1698 53.3663 36.5184ZM54.6611 37.1558C54.8304 37.4845 54.7109 37.5742 54.1133 37.5941C53.5555 37.614 53.5456 37.614 53.5755 37.355C53.6352 36.877 54.432 36.7276 54.6611 37.1558Z" fill="#CCCEC1"/>
<path d="M62.2902 36.4188C62.1408 36.4487 62.1208 36.628 62.1208 37.9925V39.5262H62.569H63.0172V38.0323C63.0172 37.2056 63.0073 36.5085 62.9973 36.4686C62.9674 36.3989 62.5491 36.369 62.2902 36.4188Z" fill="#CCCEC1"/>
<path d="M64.561 36.4786C64.0032 36.7276 63.7742 37.0762 63.7343 37.7634C63.6546 38.9685 64.1427 39.5262 65.2781 39.5262C66.1047 39.5262 66.4135 39.3868 66.3836 39.0083C66.3637 38.7594 66.3238 38.7295 66.1545 38.7892C65.5868 38.9685 65.2382 38.9486 64.9494 38.6996C64.7004 38.4805 64.6606 38.3809 64.6606 37.9427C64.6606 37.3849 64.8 37.1857 65.2681 37.0463C65.4673 36.9865 65.6964 37.0065 65.9454 37.0861C66.2541 37.1957 66.3238 37.1957 66.3637 37.0861C66.4732 36.8073 66.3537 36.4985 66.1047 36.4288C65.6864 36.3093 64.8797 36.3392 64.561 36.4786Z" fill="#CCCEC1"/>
<path d="M67.4393 36.5383C66.8815 36.8172 66.6624 37.3052 66.7222 38.1319C66.7919 39.1577 67.2202 39.5262 68.3157 39.5262C69.2221 39.5262 69.491 39.4167 69.491 39.0283C69.491 38.8689 69.481 38.7295 69.471 38.7295C69.4511 38.7394 69.2221 38.7992 68.9432 38.8689C68.1862 39.0681 67.5986 38.8291 67.5986 38.3112C67.5986 38.1518 67.6982 38.1319 68.6444 38.1319H69.6902V37.8132C69.6902 37.6439 69.6005 37.3052 69.491 37.0762C69.1424 36.3591 68.2659 36.13 67.4393 36.5383ZM68.6743 37.116C68.734 37.2056 68.7938 37.3451 68.7938 37.4347C68.7938 37.5742 68.6942 37.604 68.1962 37.5941C67.6086 37.5841 67.5887 37.5742 67.6185 37.3351C67.6783 36.877 68.3655 36.7276 68.6743 37.116Z" fill="#CCCEC1"/>
<path d="M70.7359 36.4288C70.2678 36.628 70.0487 37.1658 70.2279 37.7136C70.2678 37.8431 70.5367 38.0721 70.8454 38.2414C71.4829 38.61 71.5725 38.7195 71.3434 38.8888C71.1641 39.0183 70.5865 38.9785 70.2678 38.8092C70.1184 38.7394 70.0885 38.7693 70.0885 39.0283C70.0885 39.4067 70.3574 39.5262 71.1442 39.5262C71.6223 39.5262 71.7418 39.4864 71.9908 39.2374C72.5187 38.7096 72.3394 38.0821 71.5327 37.624C70.8554 37.2455 70.8156 36.9865 71.4331 36.9965C71.6522 36.9965 71.9111 37.0363 72.0107 37.0762C72.1501 37.1459 72.18 37.106 72.18 36.8471C72.18 36.5981 72.1203 36.5085 71.9211 36.4388C71.6223 36.3192 71.0147 36.3192 70.7359 36.4288Z" fill="#CCCEC1"/>
<path d="M25.7682 37.9825V39.5262H26.2164H26.6646V37.9825V36.4388H26.2164H25.7682V37.9825Z" fill="#CCCEC1"/>
<path d="M56.2446 37.9925V39.5262H56.6928H57.141V38.3908C57.141 37.0762 57.2008 36.9766 57.8382 37.0762L58.2366 37.1359V36.7973V36.4587H57.2406H56.2446V37.9925Z" fill="#CCCEC1"/>
<path d="M58.6449 36.5084C58.6449 36.5482 58.854 37.2355 59.113 38.0322L59.591 39.4764L60.099 39.5063L60.6069 39.5361L61.075 38.1119C61.3439 37.3251 61.573 36.6279 61.6029 36.5582C61.6328 36.4586 61.5531 36.4287 61.2643 36.4586L60.8858 36.4885L60.6069 37.4346C60.4575 37.9525 60.3281 38.4605 60.3281 38.5501C60.3281 39.0182 60.1289 38.6198 59.8699 37.604L59.5711 36.4885L59.103 36.4586C58.8441 36.4387 58.6349 36.4686 58.6449 36.5084Z" fill="#CCCEC1"/>
<path d="M55.1292 40.4325C54.7806 40.6317 54.9798 41.1198 55.4081 41.1198C55.7965 41.1198 55.9459 41.0102 55.9459 40.7214C55.9459 40.3429 55.5276 40.1935 55.1292 40.4325Z" fill="#CCCEC1"/>
<path d="M71.8812 42.5141V44.7052H72.3294H72.7776V43.5698C72.7776 42.5041 72.7876 42.4145 72.9967 42.275C73.2955 42.0659 73.4349 42.0759 73.674 42.3149C73.8532 42.4942 73.8732 42.6436 73.8732 43.6096V44.7052H74.3213H74.7695V43.4005V42.0958L74.4707 41.797C74.1919 41.5281 74.1221 41.5082 73.6441 41.538C73.3652 41.5579 73.0465 41.6177 72.9569 41.6575C72.7975 41.7273 72.7776 41.6675 72.7776 41.0301V40.323H72.3294H71.8812V42.5141Z" fill="#CCCEC1"/>
<path d="M23.8559 40.6616C22.9296 41.0002 22.5511 41.5978 22.5511 42.7133C22.5511 44.0379 23.2483 44.7052 24.6228 44.7052C25.0211 44.7052 25.4793 44.6554 25.6586 44.5956C25.9275 44.506 25.9673 44.4363 25.9673 44.1375C25.9673 43.8188 25.9474 43.7889 25.7482 43.8586C25.6187 43.8985 25.2403 43.9483 24.9116 43.9781C24.3439 44.0279 24.2742 44.008 23.9853 43.7491C23.2981 43.1316 23.3977 41.7671 24.1746 41.3687C24.5431 41.1795 25.0809 41.1795 25.539 41.3687C25.9972 41.5579 25.9673 41.5779 25.9673 41.1695C25.9673 40.9205 25.9076 40.801 25.7482 40.7114C25.4096 40.5321 24.2841 40.5022 23.8559 40.6616Z" fill="#CCCEC1"/>
<path d="M66.2342 40.6715C65.7661 40.8707 65.5669 41.2293 65.6266 41.7671C65.6963 42.3049 65.786 42.4244 66.523 42.9224C67.26 43.4304 67.4094 43.6794 67.1007 43.9283C66.8317 44.1475 66.4134 44.1574 65.9354 43.9582C65.4772 43.769 65.5071 43.7491 65.5071 44.1574C65.5071 44.5956 65.7362 44.7052 66.6226 44.7052C67.3795 44.7052 67.8277 44.496 68.0468 44.0379C68.3655 43.3806 68.0966 42.8029 67.2202 42.2452C66.9114 42.046 66.6226 41.8368 66.5828 41.7771C66.284 41.3388 66.8517 41.06 67.5986 41.2791C67.8476 41.3588 68.0568 41.4185 68.0767 41.4185C68.0966 41.4185 68.0966 41.2492 68.0767 41.05C68.0568 40.7512 67.997 40.6616 67.7978 40.6118C67.3696 40.4923 66.5728 40.5221 66.2342 40.6715Z" fill="#CCCEC1"/>
<path d="M52.6591 41.1695C52.6591 41.4484 52.6193 41.5181 52.4599 41.5181C52.3006 41.5181 52.2607 41.5878 52.2607 41.8169C52.2607 42.046 52.3006 42.1157 52.4599 42.1157C52.6492 42.1157 52.6591 42.1854 52.6591 43.1615C52.6591 44.1475 52.679 44.2271 52.9081 44.4562C53.0974 44.6554 53.2467 44.7052 53.6551 44.7052C54.2826 44.7052 54.5515 44.5757 54.5515 44.267C54.5515 43.9483 54.4817 43.9184 54.1531 44.0379C53.6551 44.2271 53.5455 44.0279 53.5754 43.022L53.6053 42.1655L54.0834 42.1356C54.5415 42.1057 54.5614 42.0958 54.5315 41.8368C54.5017 41.5878 54.4618 41.5679 54.0535 41.5679C53.6053 41.5679 53.6053 41.5679 53.5754 41.1894C53.5455 40.8209 53.5356 40.8209 53.0974 40.8209C52.6591 40.8209 52.6591 40.8209 52.6591 41.1695Z" fill="#CCCEC1"/>
<path d="M27.0629 41.7074C26.545 41.9763 26.3159 42.4444 26.3259 43.1914C26.3358 43.8587 26.4753 44.1575 27.0031 44.5459C27.4115 44.8546 28.4871 44.8447 28.9253 44.526C29.5528 44.0778 29.752 42.7631 29.2839 42.1357C28.8457 41.5381 27.77 41.3289 27.0629 41.7074ZM28.4971 42.544C28.8357 43.2511 28.507 44.2073 27.9095 44.2073C27.4812 44.2073 27.2621 43.8487 27.2621 43.1416C27.2621 42.3846 27.4712 42.0859 27.9891 42.1357C28.2481 42.1556 28.3477 42.2353 28.4971 42.544Z" fill="#CCCEC1"/>
<path d="M30.1902 41.6676C30.1603 41.7273 30.1603 42.4245 30.1703 43.2113L30.2001 44.6555L30.6284 44.6853L31.0467 44.7152V43.6196C31.0467 42.6436 31.0666 42.4942 31.2459 42.3149C31.5049 42.056 31.6045 42.0659 31.8933 42.3647C32.1224 42.5938 32.1423 42.6735 32.1423 43.6595V44.7053H32.5905H33.0386V43.5101C33.0386 42.4344 33.0586 42.3149 33.2279 42.2153C33.5067 42.0759 33.6063 42.0859 33.8354 42.3149C34.0147 42.4942 34.0346 42.6436 34.0346 43.6097V44.7053H34.4928H34.9509L34.9111 43.3607C34.8812 42.1456 34.8613 42.0062 34.6621 41.807C34.3732 41.5182 33.5765 41.4385 33.1382 41.6576C32.8594 41.797 32.7897 41.797 32.5307 41.6676C32.202 41.4982 31.6144 41.4684 31.3355 41.6178C31.226 41.6775 31.0866 41.6875 31.0168 41.6476C30.8276 41.5281 30.24 41.5381 30.1902 41.6676Z" fill="#CCCEC1"/>
<path d="M35.7776 41.5978C35.7477 41.6277 35.7278 42.6336 35.7278 43.8288V46H36.176H36.6242V45.253C36.6242 44.5359 36.6341 44.5061 36.8134 44.6056C37.1321 44.765 37.8392 44.7252 38.1878 44.5061C38.3671 44.4065 38.5862 44.1674 38.6858 43.9882C38.9248 43.54 38.9248 42.544 38.6858 42.1855C38.3073 41.6078 37.5305 41.3688 36.8632 41.6178C36.7138 41.6775 36.5644 41.6875 36.5345 41.6476C36.4648 41.558 35.8573 41.5182 35.7776 41.5978ZM37.7496 42.4344C37.8591 42.5639 37.9189 42.803 37.9189 43.1316C37.9189 43.8886 37.391 44.3069 36.8134 44.0081C36.654 43.9184 36.6242 43.789 36.6242 43.1814C36.6242 42.783 36.664 42.4145 36.7038 42.3548C36.8931 42.056 37.4707 42.1058 37.7496 42.4344Z" fill="#CCCEC1"/>
<path d="M40.0104 41.6974C39.5423 41.9265 39.3132 42.4145 39.3132 43.1715C39.3132 43.8487 39.5622 44.3467 40.0104 44.5758C40.3192 44.7351 41.3649 44.7451 41.7932 44.5957C42.0422 44.5061 42.1019 44.4363 42.1019 44.1873C42.1019 43.9184 42.082 43.8886 41.8828 43.9583C41.0163 44.2471 40.2096 44.0579 40.2096 43.5599V43.3109H41.2653H42.331L42.2613 42.8428C42.2314 42.5838 42.1318 42.2751 42.0422 42.1456C41.6538 41.548 40.7175 41.3389 40.0104 41.6974ZM41.2852 42.295C41.5342 42.6237 41.3948 42.7532 40.7574 42.7532C40.2196 42.7532 40.1598 42.7332 40.1897 42.554C40.2694 42.056 40.9765 41.8867 41.2852 42.295Z" fill="#CCCEC1"/>
<path d="M42.9486 41.5978C42.9187 41.6277 42.8988 42.3348 42.8988 43.1814V44.7052H43.347H43.7952V43.51C43.7952 42.3348 43.8051 42.3049 44.0342 42.2153C44.3728 42.0958 44.6915 42.2053 44.8011 42.4842C44.8509 42.6137 44.8907 43.1714 44.8907 43.7192V44.7052H45.3389H45.7871V43.52C45.7871 42.8627 45.7473 42.2153 45.6875 42.0759C45.5082 41.6077 44.6816 41.3787 44.0342 41.6177C43.8848 41.6775 43.7354 41.6874 43.7055 41.6476C43.6358 41.548 43.0382 41.5082 42.9486 41.5978Z" fill="#CCCEC1"/>
<path d="M47.0319 41.6078C46.6933 41.7472 46.4642 42.0858 46.4642 42.4444C46.4642 42.9324 46.5837 43.1017 47.1913 43.4503C47.4801 43.6296 47.7291 43.8188 47.759 43.8885C47.8486 44.1674 47.1514 44.2072 46.5638 43.9583C46.4144 43.8985 46.3845 43.9383 46.3845 44.1873C46.3845 44.5758 46.7729 44.7451 47.5498 44.6853C48.2171 44.6255 48.5756 44.3068 48.5756 43.779C48.5756 43.3308 48.3565 43.0519 47.7689 42.7531C47.1415 42.4344 47.1215 42.1655 47.7291 42.1755C47.9482 42.1755 48.2071 42.2153 48.3067 42.2552C48.4462 42.3249 48.476 42.285 48.476 41.9862C48.476 41.6775 48.4462 41.6377 48.1673 41.5779C47.749 41.4982 47.2809 41.5082 47.0319 41.6078Z" fill="#CCCEC1"/>
<path d="M49.502 41.6277C49.2132 41.7073 49.1733 41.7671 49.1733 42.0659V42.4045L49.5319 42.2551C50 42.0559 50.8067 42.1057 50.8465 42.3348C50.8665 42.4543 50.7071 42.5539 50.1992 42.7232C49.8107 42.8527 49.4024 43.0619 49.2331 43.2312C48.9841 43.4802 48.9542 43.5698 49.004 43.9383C49.0837 44.496 49.3526 44.7052 49.99 44.7052C50.2589 44.7052 50.5677 44.6554 50.6673 44.6056C50.7967 44.5359 50.8764 44.5359 50.9163 44.6056C50.9461 44.6554 51.1553 44.7052 51.3744 44.7052H51.7628V43.4503C51.7628 42.7431 51.713 42.1157 51.6533 41.9962C51.4242 41.5779 50.3286 41.3886 49.502 41.6277ZM50.8665 43.4901C50.8665 43.9383 50.727 44.1076 50.3585 44.1076C49.7809 44.1076 49.7111 43.5598 50.2689 43.2909C50.7868 43.0419 50.8665 43.0619 50.8665 43.4901Z" fill="#CCCEC1"/>
<path d="M55.0494 43.1017V44.7052H55.4976H55.9558L55.9259 43.1316L55.896 41.5679L55.4777 41.538L55.0494 41.5082V43.1017Z" fill="#CCCEC1"/>
<path d="M57.3402 41.6975C56.8423 41.9464 56.5933 42.4345 56.5933 43.1615C56.5933 43.9085 56.8323 44.3368 57.39 44.6057C58.2466 45.024 59.2923 44.7252 59.631 43.9882C59.8899 43.4205 59.8799 42.8528 59.611 42.315C59.3322 41.7672 58.884 41.5182 58.1868 41.5182C57.9079 41.5182 57.5394 41.5979 57.3402 41.6975ZM58.7047 42.3747C58.8939 42.6735 58.9238 43.5599 58.7445 43.8886C58.5354 44.277 57.8482 44.2969 57.649 43.9284C57.5494 43.7491 57.5095 43.3707 57.5295 42.8329C57.5494 42.1656 58.3561 41.8468 58.7047 42.3747Z" fill="#CCCEC1"/>
<path d="M60.4775 41.5978C60.4477 41.6277 60.4277 42.3348 60.4277 43.1814V44.7052H60.8759H61.3241V43.5598C61.3241 42.4643 61.3341 42.4145 61.5631 42.2551C61.7822 42.1256 61.852 42.1157 62.091 42.2352L62.3699 42.3647L62.3997 43.5399L62.4296 44.7052H62.8678H63.316V43.4005V42.0958L63.0272 41.8069C62.7882 41.5679 62.6487 41.5181 62.2703 41.5181C62.0213 41.5181 61.7225 41.5679 61.6129 41.6177C61.5034 41.6775 61.3639 41.6874 61.2942 41.6476C61.1548 41.5679 60.5473 41.5281 60.4775 41.5978Z" fill="#CCCEC1"/>
<path d="M69.3914 41.7073C68.8934 41.9663 68.6743 42.3946 68.6743 43.1017C68.6743 44.1773 69.1823 44.7052 70.2081 44.7052C71.0248 44.7052 71.2837 44.5857 71.2837 44.1973C71.2837 43.9383 71.2539 43.8985 71.1144 43.9582C70.2081 44.3068 69.5906 43.9383 69.5906 43.0619C69.5906 42.3647 70.1981 42.0161 71.0148 42.2551C71.2738 42.3348 71.2837 42.3248 71.2837 41.9862C71.2837 41.6775 71.2539 41.6376 70.975 41.5779C70.3973 41.4683 69.74 41.5181 69.3914 41.7073Z" fill="#CCCEC1"/>
<path d="M76.0743 41.6974C75.6162 41.9464 75.3672 42.4344 75.3672 43.0917C75.3672 44.2172 75.8453 44.7052 76.9807 44.7052C77.8969 44.7052 78.1559 44.5956 78.1559 44.1973C78.1559 43.9383 78.126 43.8985 77.9866 43.9582C77.887 43.9981 77.5583 44.0578 77.2496 44.0877C76.7715 44.1275 76.652 44.0977 76.4727 43.9184C76.3632 43.8088 76.2636 43.6196 76.2636 43.51C76.2636 43.3208 76.3333 43.3108 77.3093 43.3108H78.3551V42.9822C78.3451 42.4543 78.0264 41.8767 77.628 41.6874C77.1699 41.4683 76.4926 41.4683 76.0743 41.6974ZM77.3392 42.285C77.5484 42.5639 77.4786 42.7133 77.14 42.7232C76.9607 42.7232 76.6918 42.7431 76.5424 42.7531C76.3134 42.7631 76.2636 42.7332 76.2636 42.544C76.2636 42.0659 77.0205 41.8866 77.3392 42.285Z" fill="#CCCEC1"/>
<path d="M79.0024 41.5978C78.9726 41.6277 78.9526 42.3348 78.9526 43.1814V44.7052H79.4008H79.849V43.5598C79.849 42.4543 79.859 42.4145 80.098 42.2551C80.3271 42.1057 80.3669 42.1057 80.596 42.2551C80.835 42.4145 80.845 42.4543 80.845 43.5598V44.7052H81.2932H81.7413V43.6096C81.7413 42.6436 81.7613 42.4942 81.9405 42.3149C82.1895 42.0659 82.2592 42.0659 82.5481 42.3049C82.7672 42.4842 82.7871 42.5838 82.817 43.5997L82.8568 44.7052H83.295H83.7333V43.5698C83.7333 42.9523 83.6835 42.3049 83.6237 42.1257C83.4245 41.5579 82.6277 41.3488 81.8808 41.6675C81.5621 41.797 81.5023 41.797 81.3131 41.6675C81.0641 41.4982 80.4765 41.4683 80.088 41.6177C79.9386 41.6775 79.7892 41.6874 79.7594 41.6476C79.6897 41.548 79.0921 41.5082 79.0024 41.5978Z" fill="#CCCEC1"/>
<path d="M85.0281 41.6974C84.4504 41.9862 84.2612 42.5141 84.321 43.6495C84.321 43.8288 84.4604 44.0678 84.7193 44.3168C85.0878 44.6952 85.1277 44.7052 85.795 44.7052C86.1834 44.7052 86.6316 44.6554 86.8109 44.5956C87.0599 44.506 87.1196 44.4363 87.1196 44.1873C87.1196 43.9184 87.0997 43.8885 86.9005 43.9582C86.771 43.9981 86.4424 44.0578 86.1734 44.0777C85.6157 44.1275 85.297 43.9582 85.1775 43.5399C85.1177 43.3208 85.1376 43.3208 86.1934 43.2909L87.269 43.2611L87.2391 42.8129C87.2192 42.5639 87.1395 42.2651 87.0599 42.1356C86.6714 41.548 85.7253 41.3388 85.0281 41.6974ZM86.1734 42.2651C86.5121 42.5938 86.4822 42.7133 86.0739 42.7232C85.8846 42.7332 85.6057 42.7332 85.4564 42.7431C85.0978 42.7531 85.058 42.5738 85.3667 42.2651C85.6755 41.9563 85.8647 41.9464 86.1734 42.2651Z" fill="#CCCEC1"/>
</svg>
