<svg width="46" height="46" viewBox="0 0 46 46" fill="none" xmlns="http://www.w3.org/2000/svg">
<path d="M13.4745 0.160857C11.0273 0.276317 9.35607 0.666859 7.8951 1.24094C6.38306 1.8302 5.10149 2.62095 3.82636 3.90067C2.55122 5.18039 1.766 6.46288 1.18087 7.9772C0.614604 9.44139 0.23096 11.114 0.122859 13.5625C0.0147575 16.0111 -0.0091628 16.7982 0.00279732 23.0441C0.0147574 29.29 0.0423577 30.0729 0.161039 32.5266C0.27788 34.9733 0.667044 36.644 1.24113 38.1055C1.83132 39.6175 2.62114 40.8986 3.90134 42.1742C5.18153 43.4498 6.4631 44.2332 7.98112 44.8192C9.44393 45.3845 11.117 45.77 13.5651 45.8772C16.0133 45.9844 16.8012 46.0092 23.0454 45.9973C29.2895 45.9853 30.0756 45.9577 32.5288 45.8413C34.982 45.7249 36.644 45.333 38.1059 44.7617C39.6179 44.1701 40.9 43.3817 42.1746 42.101C43.4493 40.8204 44.2341 39.537 44.8187 38.0217C45.3855 36.5589 45.7705 34.8859 45.8768 32.4396C45.9839 29.9846 46.0092 29.2008 45.9973 22.9558C45.9853 16.7108 45.9573 15.9279 45.8409 13.4751C45.7245 11.0224 45.3349 9.35675 44.7612 7.8944C44.1701 6.38238 43.3812 5.10219 42.1015 3.82569C40.8218 2.54919 39.5374 1.76488 38.0226 1.1816C36.5589 0.615339 34.8868 0.229397 32.4386 0.123597C29.9905 0.0177966 29.2025 -0.00934353 22.9561 0.00261652C16.7097 0.0145766 15.9277 0.0412567 13.4745 0.160857ZM13.7431 41.7395C11.5006 41.642 10.283 41.2694 9.47153 40.9575C8.39696 40.5435 7.63152 40.043 6.82283 39.2421C6.01414 38.4413 5.51733 37.6731 5.09781 36.6008C4.78271 35.7894 4.4032 34.5731 4.29832 32.3306C4.18424 29.9069 4.16032 29.1791 4.14698 23.0386C4.13364 16.898 4.1571 16.1712 4.26336 13.7465C4.35904 11.5059 4.73395 10.2869 5.04537 9.47589C5.45937 8.39995 5.95802 7.63588 6.76073 6.82766C7.56343 6.01944 8.32934 5.52172 9.40253 5.10219C10.2131 4.78571 11.4293 4.40943 13.6709 4.30271C16.0965 4.18771 16.8233 4.16471 22.963 4.15137C29.1027 4.13803 29.8313 4.16103 32.2579 4.26775C34.4985 4.36527 35.718 4.73649 36.5281 5.04975C37.6031 5.46376 38.3681 5.96102 39.1763 6.7651C39.9846 7.56918 40.4827 8.33233 40.9023 9.40781C41.2192 10.216 41.5955 11.4318 41.7013 13.6748C41.8168 16.1004 41.843 16.8276 41.854 22.9668C41.8651 29.106 41.8434 29.8351 41.7372 32.2589C41.6392 34.5014 41.2675 35.7194 40.9552 36.5318C40.5412 37.6059 40.0421 38.3718 39.2389 39.1796C38.4357 39.9873 37.6707 40.4851 36.5971 40.9046C35.7875 41.2206 34.5698 41.5978 32.3301 41.7045C29.9045 41.8186 29.1777 41.8425 23.0357 41.8559C16.8937 41.8692 16.1692 41.8444 13.7436 41.7395M32.4934 10.7073C32.4943 11.2532 32.6571 11.7866 32.9612 12.24C33.2652 12.6934 33.6969 13.0464 34.2017 13.2545C34.7064 13.4625 35.2615 13.5162 35.7967 13.4087C36.332 13.3013 36.8233 13.0375 37.2086 12.6507C37.5939 12.264 37.8559 11.7717 37.9614 11.2361C38.0669 10.7005 38.0112 10.1456 37.8013 9.64161C37.5914 9.13765 37.2368 8.70725 36.7823 8.40485C36.3278 8.10244 35.7938 7.94161 35.2479 7.9427C34.516 7.94417 33.8147 8.23623 33.2982 8.75467C32.7817 9.27311 32.4922 9.97547 32.4934 10.7073ZM11.1906 23.0229C11.2035 29.5458 16.5009 34.8215 23.0224 34.8091C29.5438 34.7967 34.8233 29.4998 34.8109 22.9769C34.7985 16.4541 29.4997 11.177 22.9773 11.1899C16.4549 11.2027 11.1782 16.501 11.1906 23.0229ZM15.3334 23.0147C15.3304 21.4983 15.7771 20.0151 16.617 18.7526C17.457 17.4902 18.6525 16.5051 20.0522 15.9221C21.452 15.339 22.9933 15.1841 24.4811 15.477C25.9689 15.7699 27.3365 16.4974 28.4108 17.5675C29.4852 18.6376 30.2181 20.0022 30.5169 21.4889C30.8156 22.9755 30.6669 24.5174 30.0893 25.9194C29.5118 27.3215 28.5315 28.5209 27.2724 29.3658C26.0132 30.2107 24.5318 30.6633 23.0154 30.6663C22.0086 30.6684 21.0112 30.4722 20.0802 30.0888C19.1491 29.7054 18.3028 29.1423 17.5894 28.4318C16.876 27.7212 16.3096 26.8771 15.9225 25.9476C15.5354 25.0181 15.3352 24.0215 15.3334 23.0147Z" fill="#878C75"/>
</svg>
