<svg width="46" height="46" viewBox="0 0 46 46" fill="none" xmlns="http://www.w3.org/2000/svg">
<path d="M39.1942 39.1951H32.3784V28.521C32.3784 25.9756 32.333 22.699 28.8335 22.699C25.2837 22.699 24.7405 25.4722 24.7405 28.3357V39.1944H17.9247V17.244H24.4679V20.2438H24.5595C25.2143 19.1242 26.1605 18.2031 27.2974 17.5787C28.4342 16.9543 29.7191 16.6499 31.0153 16.6981C37.9233 16.6981 39.197 21.2421 39.197 27.1535L39.1942 39.1951ZM10.2343 14.2436C9.452 14.2437 8.68723 14.0119 8.03671 13.5774C7.38619 13.1429 6.87916 12.5252 6.57967 11.8025C6.28017 11.0798 6.20168 10.2845 6.35416 9.51722C6.50664 8.74992 6.88323 8.04507 7.43628 7.49179C7.98934 6.93852 8.69404 6.56168 9.46126 6.40892C10.2285 6.25616 11.0237 6.33435 11.7465 6.63359C12.4693 6.93284 13.0871 7.4397 13.5219 8.09009C13.9566 8.74047 14.1887 9.50517 14.1889 10.2875C14.1889 10.8069 14.0867 11.3213 13.888 11.8012C13.6893 12.2811 13.3981 12.7172 13.0309 13.0846C12.6637 13.4519 12.2277 13.7434 11.7478 13.9422C11.268 14.1411 10.7537 14.2435 10.2343 14.2436ZM13.6422 39.1951H6.8193V17.244H13.6422V39.1951ZM42.5921 0.00313405H3.3944C2.50472 -0.0069063 1.64741 0.336688 1.01093 0.958415C0.374444 1.58014 0.010858 2.42913 0 3.31883V42.6805C0.0104864 43.5706 0.373859 44.4202 1.01032 45.0426C1.64678 45.6649 2.50428 46.0092 3.3944 45.9997H42.5921C43.484 46.0109 44.3439 45.6676 44.9829 45.0453C45.6219 44.4229 45.9877 43.5724 46 42.6805V3.31599C45.9873 2.42453 45.6212 1.57457 44.9822 0.95286C44.3432 0.331148 43.4836 -0.0114644 42.5921 0.000292908" fill="#878C75"/>
</svg>
