<svg width="86" height="32" viewBox="0 0 86 32" fill="none" xmlns="http://www.w3.org/2000/svg">
<rect x="4.5" width="32" height="32" rx="8" fill="#0E0F0C"/>
<path d="M24.7098 15.1719L29.6728 9.37994C30.6158 8.08694 31.1668 7.55194 30.7428 5.43994L23.3758 14.0399C22.0709 15.5624 21.3932 17.5237 21.4798 19.5269L18.2628 15.8699C17.9782 15.5599 17.6607 15.2819 17.3158 15.0409C16.7464 14.6489 16.1377 14.3171 15.4998 14.0509C15.7128 13.9749 15.9298 13.9109 16.1488 13.8569C16.5338 13.7629 16.9288 13.7129 17.3248 13.7099C17.7688 13.7099 18.2058 13.7799 18.6248 13.9469C19.0408 14.1149 19.4448 14.3789 19.8368 14.8049L20.0528 15.0569L21.3888 13.9279C21.3788 13.9169 21.1478 13.6449 21.1378 13.6359C20.6243 13.0653 19.9885 12.6181 19.2778 12.3279C18.656 12.083 17.993 11.9595 17.3248 11.9639C17.1738 11.9639 17.0258 11.9709 16.8788 11.9809C15.4178 12.2209 14.5148 13.0849 13.1648 13.2249C13.1658 13.2309 8.58476 13.2249 8.58376 13.2269C8.48276 13.2269 8.46876 13.3709 8.56676 13.3899C9.76876 13.6299 11.9078 14.0889 13.4108 14.6039C14.5528 15.1329 15.6508 15.8089 16.5168 16.6259C16.6868 16.7609 16.8338 16.8969 16.9558 17.0309L21.2388 21.9009C21.8488 22.4019 22.6338 22.6559 24.3048 22.6679C24.0196 22.2522 23.7862 21.8032 23.6098 21.3309C23.1007 19.9588 23.0958 18.4504 23.5958 17.0749C23.8492 16.3786 24.2266 15.7338 24.7098 15.1719ZM32.4998 26.5599C30.7658 26.5379 30.0108 26.2429 29.3898 25.6719L28.4278 24.5789C28.3628 24.4999 28.2978 24.4219 28.2308 24.3449L28.2418 24.3679L26.5378 22.4309C25.9695 21.7848 25.5856 20.9976 25.4263 20.152C25.2671 19.3064 25.3384 18.4335 25.6328 17.6249C25.8306 17.0821 26.1258 16.5799 26.5038 16.1429L30.7118 11.2509C31.1418 13.4299 30.5198 13.9169 29.5018 15.3409L27.8338 17.2779C27.3564 17.8306 27.094 18.5367 27.0948 19.2669C27.0958 20.0079 27.3668 20.7249 27.8558 21.2809L32.4998 26.5599Z" fill="#77E200"/>
<path d="M46.8418 20.3418L51.0312 8.28125H53.0723L47.8086 22.5H46.3535L46.8418 20.3418ZM42.9258 8.28125L47.0762 20.3418L47.5938 22.5H46.1387L40.8848 8.28125H42.9258ZM58.668 22.6953C57.9323 22.6953 57.265 22.5716 56.666 22.3242C56.0736 22.0703 55.5625 21.7155 55.1328 21.2598C54.7096 20.804 54.3841 20.2637 54.1562 19.6387C53.9284 19.0137 53.8145 18.3301 53.8145 17.5879V17.1777C53.8145 16.3184 53.9414 15.5534 54.1953 14.8828C54.4492 14.2057 54.7943 13.6328 55.2305 13.1641C55.6667 12.6953 56.1615 12.3405 56.7148 12.0996C57.2682 11.8587 57.8411 11.7383 58.4336 11.7383C59.1888 11.7383 59.8398 11.8685 60.3867 12.1289C60.9401 12.3893 61.3926 12.7539 61.7441 13.2227C62.0957 13.6849 62.3561 14.2318 62.5254 14.8633C62.6947 15.4883 62.7793 16.1719 62.7793 16.9141V17.7246H54.8887V16.25H60.9727V16.1133C60.9466 15.6445 60.849 15.1888 60.6797 14.7461C60.5169 14.3034 60.2565 13.9388 59.8984 13.6523C59.5404 13.3659 59.0521 13.2227 58.4336 13.2227C58.0234 13.2227 57.6458 13.3105 57.3008 13.4863C56.9557 13.6556 56.6595 13.9095 56.4121 14.248C56.1647 14.5866 55.9727 15 55.8359 15.4883C55.6992 15.9766 55.6309 16.5397 55.6309 17.1777V17.5879C55.6309 18.0892 55.6992 18.5612 55.8359 19.0039C55.9792 19.4401 56.1842 19.8242 56.4512 20.1562C56.7246 20.4883 57.0534 20.7487 57.4375 20.9375C57.8281 21.1263 58.2708 21.2207 58.7656 21.2207C59.4036 21.2207 59.944 21.0905 60.3867 20.8301C60.8294 20.5697 61.2168 20.2214 61.5488 19.7852L62.6426 20.6543C62.4147 20.9993 62.125 21.3281 61.7734 21.6406C61.4219 21.9531 60.9889 22.207 60.4746 22.4023C59.9668 22.5977 59.3646 22.6953 58.668 22.6953ZM66.6953 13.5938V22.5H64.8887V11.9336H66.6465L66.6953 13.5938ZM69.9961 11.875L69.9863 13.5547C69.8366 13.5221 69.6934 13.5026 69.5566 13.4961C69.4264 13.4831 69.2767 13.4766 69.1074 13.4766C68.6908 13.4766 68.3229 13.5417 68.0039 13.6719C67.6849 13.8021 67.4147 13.9844 67.1934 14.2188C66.972 14.4531 66.7962 14.7331 66.666 15.0586C66.5423 15.3776 66.4609 15.7292 66.4219 16.1133L65.9141 16.4062C65.9141 15.7682 65.9759 15.1693 66.0996 14.6094C66.2298 14.0495 66.4284 13.5547 66.6953 13.125C66.9622 12.6888 67.3008 12.3503 67.7109 12.1094C68.1276 11.862 68.6224 11.7383 69.1953 11.7383C69.3255 11.7383 69.4753 11.7546 69.6445 11.7871C69.8138 11.8132 69.931 11.8424 69.9961 11.875ZM70.9922 17.334V17.1094C70.9922 16.3477 71.1029 15.6413 71.3242 14.9902C71.5456 14.3327 71.8646 13.763 72.2812 13.2812C72.6979 12.793 73.2025 12.4154 73.7949 12.1484C74.3874 11.875 75.0514 11.7383 75.7871 11.7383C76.5293 11.7383 77.1966 11.875 77.7891 12.1484C78.388 12.4154 78.8958 12.793 79.3125 13.2812C79.7357 13.763 80.0579 14.3327 80.2793 14.9902C80.5007 15.6413 80.6113 16.3477 80.6113 17.1094V17.334C80.6113 18.0957 80.5007 18.8021 80.2793 19.4531C80.0579 20.1042 79.7357 20.6738 79.3125 21.1621C78.8958 21.6439 78.3913 22.0215 77.7988 22.2949C77.2129 22.5618 76.5488 22.6953 75.8066 22.6953C75.0645 22.6953 74.3971 22.5618 73.8047 22.2949C73.2122 22.0215 72.7044 21.6439 72.2812 21.1621C71.8646 20.6738 71.5456 20.1042 71.3242 19.4531C71.1029 18.8021 70.9922 18.0957 70.9922 17.334ZM72.7988 17.1094V17.334C72.7988 17.8613 72.8607 18.3594 72.9844 18.8281C73.1081 19.2904 73.2936 19.7005 73.541 20.0586C73.7949 20.4167 74.1107 20.6999 74.4883 20.9082C74.8659 21.11 75.3053 21.2109 75.8066 21.2109C76.3014 21.2109 76.7344 21.11 77.1055 20.9082C77.4831 20.6999 77.7956 20.4167 78.043 20.0586C78.2904 19.7005 78.4759 19.2904 78.5996 18.8281C78.7298 18.3594 78.7949 17.8613 78.7949 17.334V17.1094C78.7949 16.5885 78.7298 16.097 78.5996 15.6348C78.4759 15.166 78.2871 14.7526 78.0332 14.3945C77.7858 14.0299 77.4733 13.7435 77.0957 13.5352C76.7246 13.3268 76.2884 13.2227 75.7871 13.2227C75.2923 13.2227 74.8561 13.3268 74.4785 13.5352C74.1074 13.7435 73.7949 14.0299 73.541 14.3945C73.2936 14.7526 73.1081 15.166 72.9844 15.6348C72.8607 16.097 72.7988 16.5885 72.7988 17.1094Z" fill="#0E0F0C"/>
</svg>
