<svg width="40" height="40" viewBox="0 0 40 40" fill="none" xmlns="http://www.w3.org/2000/svg">
<rect width="40" height="40" rx="8" fill="#0E0F0C"/>
<path d="M24.5607 18.9807L29.9374 11.8504C30.959 10.2586 31.5559 9.6 31.0965 7L23.1155 17.5871C21.7019 19.4613 20.9677 21.8758 21.0615 24.342L17.5763 19.84C17.2681 19.4583 16.9241 19.1161 16.5504 18.8194C15.9335 18.3368 15.2742 17.9284 14.583 17.6007C14.8138 17.5071 15.0488 17.4283 15.2861 17.3618C15.7032 17.2461 16.1311 17.1846 16.5601 17.1809C17.0411 17.1809 17.5146 17.267 17.9685 17.4726C18.4192 17.6795 18.8568 18.0045 19.2815 18.5289L19.5155 18.8391L20.9629 17.4492C20.952 17.4357 20.7018 17.1009 20.6909 17.0898C20.1347 16.3872 19.4459 15.8368 18.6759 15.4795C18.0023 15.178 17.2841 15.0259 16.5601 15.0314C16.3965 15.0314 16.2362 15.0401 16.077 15.0524C14.4942 15.3478 13.5159 16.4115 12.0534 16.5838C12.0545 16.5912 7.09163 16.5838 7.09054 16.5863C6.98112 16.5863 6.96596 16.7635 7.07213 16.7869C8.37432 17.0824 10.6916 17.6474 12.3199 18.2814C13.5571 18.9327 14.7466 19.7649 15.6848 20.7706C15.8689 20.9368 16.0282 21.1043 16.1604 21.2692L20.8004 27.2645C21.4612 27.8812 22.3116 28.1939 24.1219 28.2087C23.813 27.6969 23.5601 27.1442 23.369 26.5628C22.8175 24.8736 22.8122 23.0167 23.3538 21.3234C23.6284 20.4661 24.0373 19.6724 24.5607 18.9807ZM33 33C31.1215 32.9729 30.3035 32.6098 29.6308 31.9068L28.5886 30.5613C28.5182 30.464 28.4478 30.368 28.3752 30.2732L28.3871 30.3015L26.5411 27.917C25.9254 27.1215 25.5095 26.1525 25.337 25.1115C25.1645 24.0705 25.2417 22.9959 25.5606 22.0005C25.775 21.3322 26.0948 20.714 26.5042 20.176L31.063 14.1537C31.5288 16.8362 30.855 17.4357 29.7521 19.1887L27.9451 21.5733C27.4279 22.2536 27.1437 23.1229 27.1445 24.0219C27.1456 24.9341 27.4392 25.8168 27.9689 26.5012L33 33Z" fill="#77E200"/>
</svg>
