<svg width="99" height="43" viewBox="0 0 99 43" fill="none" xmlns="http://www.w3.org/2000/svg">
<path d="M5.58809 0.185326C3.49442 0.546303 1.49099 2.09851 0.552446 4.10194L0.065125 5.13073L0.0109783 20.003C-0.0251196 29.569 0.0290272 35.2363 0.15537 35.8861C0.570495 38.2144 2.32124 40.669 4.39686 41.8603C6.41834 43.0154 3.63881 42.9432 45.7289 42.9432C86.8985 42.9432 84.7506 42.9793 86.718 42.0227C87.9273 41.4451 89.7141 39.7124 90.3819 38.449C91.3926 36.5358 91.4829 35.7236 91.4829 27.5294V20.1294L93.6127 22.2411C95.58 24.1904 95.8146 24.3528 96.4283 24.3528C97.5654 24.3528 98.4678 23.6128 98.5581 22.6382C98.6303 21.5552 98.5039 21.3747 94.6053 17.4401C92.4395 15.2742 90.4361 13.3791 90.1473 13.2166C89.0282 12.6391 88.6312 12.8918 84.7326 16.7362C80.6896 20.743 80.1121 21.4469 80.1121 22.2772C80.1121 23.1255 80.7979 24.046 81.574 24.2445C82.6931 24.5153 83.1443 24.2626 85.2921 22.1328L87.3316 20.1294V27.4392C87.3316 32.2041 87.2594 34.9836 87.1331 35.4529C86.8263 36.5358 85.978 37.6368 85.0214 38.1963L84.1731 38.7017L45.9455 38.7559L7.71787 38.792L6.81542 38.4129C6.31005 38.1963 5.64224 37.709 5.29931 37.2939C4.10808 35.9222 4.12613 36.0485 4.12613 24.6777V14.4259H44.6098H85.0755L86.6097 12.8918C88.6673 10.8161 89.6238 10.5454 90.8151 11.6825L91.3204 12.1698L91.2663 8.56002C91.2122 5.05853 91.1941 4.91414 90.7248 3.95755C89.7321 1.93607 87.819 0.528252 85.5267 0.167274C84.0467 -0.0673599 7.01396 -0.0493126 5.58809 0.185326ZM11.7969 4.95024C12.3925 5.23902 12.7896 5.85268 12.6633 6.24976C12.5369 6.61074 12.0857 6.52049 11.4901 6.03317C10.8223 5.47365 10.3711 5.4556 9.81154 6.03317C9.16178 6.66488 9.16178 8.1088 9.81154 8.74051C10.3891 9.33612 10.8584 9.30002 11.5623 8.65026C12.212 8.0366 12.3023 8.0005 12.6091 8.37953C12.8077 8.61417 12.7896 8.75856 12.4828 9.15563C11.7969 10.0942 10.6598 10.3469 9.43251 9.82344C8.38568 9.39027 7.80811 7.63952 8.29543 6.35805C8.8369 4.89609 10.3711 4.28243 11.7969 4.95024ZM14.5945 6.71903C14.6667 8.39758 14.7389 8.72246 15.0277 8.93904C15.4969 9.28197 15.9121 9.26393 16.3813 8.86685C16.7062 8.59612 16.7604 8.32538 16.7965 6.77317C16.8506 5.27512 16.9048 4.95024 17.1755 4.7878C17.7531 4.44487 18.0238 5.09463 18.0057 6.73708C18.0057 8.65026 17.7531 9.37222 16.9409 9.76929C15.7677 10.3649 14.1433 10.022 13.7101 9.08344C13.4935 8.59612 13.4213 5.00438 13.6379 4.7878C13.7101 4.7156 13.9267 4.6795 14.1433 4.7156C14.4682 4.76975 14.5043 4.93219 14.5945 6.71903ZM35.5854 4.7878C35.7478 4.84195 36.2893 5.61805 36.8308 6.50244C37.3542 7.38684 37.8415 8.1088 37.9317 8.1088C38.0039 8.1088 38.0581 7.36879 38.0581 6.48439C38.0581 5.18487 38.1122 4.82389 38.3288 4.7517C38.4732 4.6795 38.7259 4.73365 38.8703 4.85999C39.1049 5.05853 39.141 5.5278 39.1049 7.44099C39.0508 9.44442 38.9966 9.80539 38.7439 9.98588C38.2566 10.2927 37.9318 9.98588 36.7947 8.19904L35.802 6.61074L35.7478 8.25319C35.7117 9.6971 35.6576 9.91368 35.3508 10.0039C35.1522 10.0581 34.9176 10.0581 34.8093 10.0039C34.5205 9.82344 34.5747 4.91414 34.8634 4.80585C35.1703 4.66145 35.2786 4.66145 35.5854 4.7878ZM49.5372 4.82389C49.6455 4.89609 50.1148 5.96098 50.566 7.20635C51.1616 8.86685 51.324 9.55271 51.1977 9.78735C50.945 10.2747 50.4577 10.0942 50.1689 9.40832C49.9162 8.86685 49.8621 8.83075 48.9596 8.83075C48.0572 8.83075 48.003 8.8488 47.8948 9.37222C47.7143 10.1664 46.7216 10.3469 46.7216 9.58881C46.7216 9.31807 48.2016 5.23902 48.4543 4.84195C48.5626 4.64341 49.2484 4.62536 49.5372 4.82389ZM55.2948 4.93219C55.9446 5.20292 56.3777 5.81658 56.2153 6.23171C56.089 6.57464 55.4933 6.55659 55.2046 6.19561C54.1577 4.95023 52.7138 5.90683 52.9123 7.71172C53.0026 8.59612 53.2553 8.93904 53.9592 9.10149C54.3382 9.19173 54.5728 9.10149 55.0963 8.63221C55.7099 8.09075 55.7821 8.0727 56.0529 8.34343C56.6846 8.97514 55.4392 10.0942 54.1216 10.0942C52.6777 10.0942 51.7392 9.06539 51.7211 7.49513C51.7031 6.35805 52.046 5.6361 52.8402 5.09463C53.5441 4.62536 54.3924 4.57121 55.2948 4.93219ZM60.89 5.22097C61.4675 5.76244 61.5036 6.48439 60.9622 6.48439C60.7456 6.48439 60.3846 6.28585 60.15 6.03317C59.6265 5.47365 59.1573 5.4556 58.5256 6.01512C58.0924 6.3761 58.0202 6.55659 58.0382 7.40489C58.0563 8.21709 58.1285 8.43367 58.5256 8.7766C59.1753 9.33612 59.5002 9.30002 60.1861 8.63221C60.89 7.94635 61.3953 8.01855 61.3051 8.7766C61.2329 9.42636 60.2402 10.0942 59.3739 10.0942C59.0129 10.0942 58.4353 9.94978 58.0924 9.76929C56.3958 8.93904 56.4138 5.94293 58.1104 5.00438C58.9407 4.53511 60.2763 4.64341 60.89 5.22097ZM65.8354 5.00438C67.5139 5.90683 67.532 8.57807 65.8534 9.6971C65.0051 10.2747 63.5612 10.1844 62.8573 9.53466C60.4568 7.33269 63.0017 3.48827 65.8354 5.00438ZM68.8134 4.7878C69.0481 4.87804 69.1022 5.22097 69.1022 6.68293C69.1022 8.23514 69.1564 8.52392 69.4632 8.83075C69.8964 9.26393 70.3296 9.28197 70.871 8.90295C71.232 8.65026 71.2681 8.48782 71.2681 6.86342C71.2681 5.02243 71.4666 4.49902 72.0803 4.7517C72.2969 4.82389 72.351 5.23902 72.351 6.93562C72.351 8.90295 72.333 9.04734 71.9179 9.46246C71.0876 10.2927 69.2286 10.2747 68.4525 9.42636C68.0554 8.99319 68.0193 8.8127 68.0193 6.93562C68.0193 4.6434 68.0734 4.49902 68.8134 4.7878ZM74.932 5.25707C75.1667 5.58195 75.6901 6.3761 76.0691 7.00781L76.773 8.18099L76.8633 6.57464C76.9355 5.29316 77.0257 4.95024 77.2784 4.7878C77.8921 4.40877 78.1267 5.07658 78.1267 7.1883C78.1267 9.33612 78.0364 9.84149 77.6394 10.0039C77.0979 10.2025 76.755 9.89564 75.7803 8.28928L74.7876 6.66488L74.6974 8.21709C74.6252 9.48051 74.535 9.82344 74.2823 9.98588C74.0115 10.1483 73.9032 10.1122 73.6867 9.84149C73.3798 9.40832 73.3257 5.58195 73.6145 5.02243C73.9032 4.49902 74.4447 4.60731 74.932 5.25707ZM22.9872 5.31121C23.5287 5.83463 23.5648 6.46634 23.0955 7.04391C22.8068 7.40489 22.7887 7.53123 22.9872 7.74782C23.1136 7.89221 23.258 8.43367 23.3302 8.95709C23.4385 9.78735 23.4024 9.89564 23.0775 10.0039C22.5541 10.1664 22.175 9.78735 22.175 9.08344C22.175 8.30733 21.7599 7.92831 20.8936 7.92831H20.1897V8.90295C20.1897 9.7332 20.1355 9.91368 19.8287 10.0039C19.6301 10.0581 19.3955 10.0581 19.2872 10.0039C19.0887 9.87759 19.0345 5.18487 19.2331 4.98634C19.2872 4.91414 20.0633 4.85999 20.9477 4.85999C22.4097 4.85999 22.5902 4.89609 22.9872 5.31121ZM28.3297 5.20292C28.8712 5.6361 28.9073 6.75513 28.3839 7.1883C28.0409 7.45903 28.0409 7.49513 28.3478 7.78392C28.781 8.19904 28.799 9.87759 28.4019 10.022C28.0048 10.1844 27.5897 9.76929 27.5897 9.20978C27.5897 8.39758 27.1205 7.92831 26.3263 7.92831H25.6224L25.5682 8.8488C25.5141 9.91368 25.117 10.3469 24.6297 9.93174C24.3951 9.7332 24.3409 9.28197 24.3409 7.56733C24.3409 6.39415 24.3951 5.31121 24.4492 5.14878C24.6297 4.69755 27.7522 4.73365 28.3297 5.20292ZM33.6903 5.25707C33.6361 5.6361 33.5278 5.6722 32.2463 5.72634L30.8385 5.78049V6.30391C30.8385 6.82732 30.8385 6.82732 32.0659 6.88147C33.1668 6.93562 33.2751 6.97171 33.3293 7.33269C33.3834 7.72977 33.3293 7.74782 32.12 7.74782H30.8385V8.37953V9.01124H32.1741C33.5278 9.01124 34.0332 9.22783 33.7444 9.6971C33.6542 9.85954 33.0766 9.91368 31.7229 9.87759L29.8458 9.82344L29.7917 7.58538C29.7736 6.34 29.7917 5.22097 29.8278 5.09463C29.9 4.91414 30.4234 4.85999 31.8312 4.85999C33.7264 4.85999 33.7444 4.85999 33.6903 5.25707ZM44.285 5.31121C44.285 5.61805 44.1406 5.6722 43.4367 5.72634L42.5703 5.78049V7.82001C42.5703 9.94978 42.462 10.2566 41.7581 9.98588C41.5415 9.89564 41.4874 9.48051 41.4874 7.82001V5.76244H40.6932C40.1337 5.76244 39.863 5.6722 39.7908 5.47366C39.5742 4.93219 39.8991 4.84195 42.083 4.89609C44.1406 4.95024 44.285 4.96828 44.285 5.31121ZM83.1443 5.25707C83.1082 5.6 82.9638 5.69024 82.3321 5.72634L81.574 5.78049L81.5199 7.78392C81.4657 9.48051 81.4116 9.82344 81.1409 9.98588C80.5272 10.3649 80.2926 9.6971 80.2926 7.62148V5.76244H79.5887C78.8306 5.76244 78.5599 5.5639 78.7403 5.13073C78.8125 4.91414 79.2818 4.85999 81.0145 4.85999C83.1804 4.85999 83.1984 4.85999 83.1443 5.25707Z" fill="#CCCEC1"/>
<path d="M48.7251 6.86339C48.5987 7.27851 48.4543 7.71169 48.4002 7.85608C48.328 8.03657 48.4724 8.10876 48.9777 8.10876C49.6275 8.10876 49.6275 8.10876 49.5192 7.51315C49.3568 6.84534 49.1041 6.12338 49.0138 6.12338C48.9777 6.12338 48.8514 6.44826 48.7251 6.86339Z" fill="#CCCEC1"/>
<path d="M63.5973 6.03322C63.2364 6.37615 63.1461 6.64688 63.1461 7.35079C63.1461 8.41568 63.5251 8.95714 64.3554 9.11958C65.7271 9.39032 66.5213 7.00786 65.3842 5.97907C64.7886 5.45565 64.1388 5.4737 63.5973 6.03322Z" fill="#CCCEC1"/>
<path d="M20.1897 6.39417V7.02588H21.0921C22.0668 7.02588 22.4639 6.68295 22.157 6.08734C22.0307 5.83465 21.76 5.76245 21.0921 5.76245H20.1897V6.39417Z" fill="#CCCEC1"/>
<path d="M25.6043 6.39418V7.04395L26.5609 6.9898C27.4633 6.93565 27.4994 6.9176 27.4994 6.39418C27.4994 5.87077 27.4633 5.85272 26.5609 5.79857L25.6043 5.74442V6.39418Z" fill="#CCCEC1"/>
<path d="M9.27007 18.1801C8.45787 18.6855 8.22323 19.0465 8.22323 19.8587C8.22323 20.8694 8.74665 21.3567 10.2267 21.7538C11.7789 22.1509 12.0677 22.3133 12.0677 22.7285C12.0677 23.7753 10.6598 23.9377 9.55885 22.9992C9.14373 22.6563 8.6925 22.4216 8.54811 22.4758C7.77201 22.7826 8.27738 23.9919 9.36031 24.4251C11.815 25.3997 14.2696 23.9016 13.4394 21.9343C13.1325 21.2123 12.555 20.8694 11.1291 20.5626C9.88373 20.3099 9.45056 19.967 9.72129 19.4616C10.1003 18.7577 11.2013 18.8118 12.1218 19.5879C13.0603 20.364 13.8003 19.4436 12.934 18.6133C12.0496 17.8011 10.2447 17.5845 9.27007 18.1801Z" fill="#CCCEC1"/>
<path d="M14.2335 18.1259C14.053 18.3425 14.1433 18.92 14.6847 21.1401C15.4428 24.2264 15.6594 24.7137 16.3091 24.7137C16.9228 24.7137 17.1935 24.2084 17.6628 22.1869C17.8794 21.2484 18.1321 20.4181 18.1862 20.3459C18.2584 20.2557 18.5292 21.122 18.8179 22.2591C19.3414 24.443 19.4858 24.7137 20.1175 24.7137C20.7492 24.7137 21.0199 24.1542 21.7419 21.1942C22.3194 18.8659 22.3916 18.3786 22.1931 18.1439C21.8502 17.7288 21.2907 17.783 21.0921 18.2522C21.0019 18.4869 20.7492 19.5518 20.5326 20.6527C20.3341 21.7357 20.1355 22.6562 20.0994 22.6923C20.0814 22.7284 19.8287 21.7898 19.558 20.6166C18.9443 17.9995 18.8721 17.8552 18.1862 17.8552C17.5545 17.8552 17.5184 17.9454 16.9228 20.5986C16.6882 21.6815 16.4535 22.5479 16.3994 22.5479C16.3452 22.5479 16.1106 21.5913 15.876 20.4362C15.6594 19.263 15.3887 18.1981 15.2804 18.0898C15.0277 17.783 14.5043 17.801 14.2335 18.1259Z" fill="#CCCEC1"/>
<path d="M23.4746 17.9995C23.3122 18.1259 23.258 18.902 23.2941 21.2845C23.3483 24.0279 23.3844 24.425 23.6732 24.6055C23.8898 24.7498 24.0702 24.7498 24.3049 24.6055C24.5756 24.425 24.6117 24.0279 24.6659 21.3747C24.702 19.2991 24.6478 18.2703 24.5034 18.1078C24.2688 17.8191 23.8356 17.783 23.4746 17.9995Z" fill="#CCCEC1"/>
<path d="M33.4556 18.144C32.1561 18.8118 31.6508 19.8947 31.7771 21.7177C31.8493 22.9811 32.1561 23.5587 33.0586 24.2445C33.7444 24.7499 35.3508 24.8582 36.2532 24.4431C37.4084 23.9196 37.9137 22.7645 37.1557 22.3674C36.8488 22.205 36.6864 22.2772 36.1449 22.8187C35.5854 23.3782 35.4049 23.4684 34.7552 23.4143C34.1415 23.3782 33.943 23.2518 33.6 22.7465C32.8239 21.6094 33.203 19.6781 34.2678 19.2269C35.0259 18.9201 35.5854 19.0464 36.163 19.6962C37.0113 20.6528 37.9859 19.9489 37.282 18.8659C36.6683 17.9274 34.5927 17.5484 33.4556 18.144Z" fill="#CCCEC1"/>
<path d="M38.7981 18.1078C38.6537 18.2703 38.5995 19.2991 38.6356 21.3747C38.6898 24.0279 38.7259 24.425 39.0147 24.6055C39.2313 24.7498 39.4117 24.7498 39.6464 24.6055C39.881 24.443 39.9713 24.1001 40.0074 23.1074L40.0615 21.8259H41.3971H42.7508V22.963C42.7508 24.3347 43.0215 24.822 43.6893 24.6596C43.9601 24.5874 44.1947 24.3708 44.2669 24.1362C44.4474 23.4323 44.3933 18.5771 44.1947 18.1981C44.0864 17.9995 43.8157 17.8552 43.563 17.8552C42.9854 17.8552 42.7508 18.3425 42.7508 19.5698V20.5805L41.4513 20.5264L40.1337 20.4722L40.0796 19.3893C40.0435 18.8117 39.9352 18.2161 39.8269 18.0898C39.5742 17.783 39.0508 17.783 38.7981 18.1078Z" fill="#CCCEC1"/>
<path d="M25.6223 18.2883C25.1531 18.8478 25.7667 19.2991 27.0121 19.2991H27.5897V21.7176C27.5897 23.685 27.6438 24.2084 27.8785 24.425C28.0229 24.5874 28.2755 24.7137 28.4019 24.7137C28.5282 24.7137 28.7809 24.5874 28.9253 24.425C29.1599 24.2084 29.2141 23.685 29.2141 21.7176V19.2991H29.9902C30.9648 19.2991 31.4702 18.9742 31.3078 18.4327C31.1814 18.0537 31.0912 18.0356 28.5102 18.0356C26.4526 18.0356 25.7848 18.0898 25.6223 18.2883Z" fill="#CCCEC1"/>
<path d="M11.1833 26.5187C9.59497 26.8617 8.58424 27.9265 8.25935 29.6592C7.88033 31.771 8.74668 33.7744 10.335 34.37C11.4179 34.7851 13.0784 34.6768 13.8004 34.1534L14.3057 33.7744L14.5043 34.1715C14.6306 34.4061 14.8653 34.5505 15.136 34.5505H15.5872V32.4749V30.3993L14.0892 30.3451C12.5009 30.291 12.0677 30.4353 12.0677 31.049C12.0677 31.4822 12.5911 31.7529 13.4033 31.7529C14.1794 31.7529 14.2155 31.9334 13.5477 32.6915C13.1145 33.1607 12.8979 33.251 12.2301 33.251C10.7862 33.251 9.99205 32.3305 9.99205 30.67C10.0101 29.5329 10.1725 28.9914 10.714 28.468C11.5804 27.6017 13.1687 27.6739 13.7823 28.6124C14.2335 29.3163 15.3165 29.0997 15.3165 28.3056C15.3165 27.9085 14.6667 27.1143 14.0711 26.8075C13.4033 26.4646 12.1218 26.3382 11.1833 26.5187Z" fill="#CCCEC1"/>
<path d="M17.2838 27.0061C17.1574 27.3129 17.1213 28.5041 17.1574 30.0563C17.2477 32.9622 17.4462 33.5398 18.6735 34.2256C19.6662 34.8032 21.435 34.8032 22.536 34.2256C23.8175 33.5939 24.016 33.0525 24.1243 30.0744C24.2146 27.0963 24.0702 26.5188 23.2941 26.5188C22.4458 26.5188 22.3555 26.7534 22.3555 29.208C22.3555 32.6012 22.1028 33.1969 20.6409 33.1969C19.1789 33.1969 18.9262 32.6193 18.9262 29.3344C18.9262 26.7534 18.854 26.5188 17.9877 26.5188C17.5906 26.5188 17.4282 26.6451 17.2838 27.0061Z" fill="#CCCEC1"/>
<path d="M27.4634 26.7353C27.1566 27.1324 24.8463 33.4315 24.8463 33.9007C24.8282 34.3881 25.1531 34.6407 25.7487 34.6407C26.0917 34.6407 26.2541 34.4603 26.5609 33.7383L26.94 32.8178L28.3839 32.872L29.8097 32.9261L30.0624 33.6481C30.3332 34.4242 30.5498 34.6407 31.1634 34.6407C31.4161 34.6407 31.6327 34.4783 31.759 34.2076C31.9395 33.8285 31.7771 33.251 30.7483 30.3632C30.0624 28.5041 29.4488 26.8617 29.3405 26.7353C29.2502 26.627 28.8171 26.5187 28.4019 26.5187C27.9868 26.5187 27.5536 26.627 27.4634 26.7353ZM29.3044 31.1934C29.4127 31.5544 29.3585 31.5724 28.42 31.5724C27.8605 31.5724 27.4092 31.5183 27.4092 31.4461C27.4092 31.3558 27.6258 30.6519 27.8966 29.8578L28.3658 28.4139L28.781 29.6231C28.9975 30.2729 29.2322 30.9949 29.3044 31.1934Z" fill="#CCCEC1"/>
<path d="M33.3654 26.7353L32.9141 26.988L32.86 30.5256C32.8239 33.5578 32.86 34.0993 33.1127 34.352C33.4737 34.7129 33.979 34.7129 34.34 34.352C34.5566 34.1534 34.6288 33.7022 34.6288 32.7276V31.3919H35.6937C37.1195 31.3919 37.4986 31.6988 37.643 33.0163C37.7513 34.1173 38.0942 34.6407 38.6898 34.6407C39.3757 34.6407 39.5201 34.2617 39.3937 32.8178C39.2854 31.8071 39.1771 31.41 38.8703 31.1032L38.4913 30.7241L38.9966 30.1466C39.8991 29.1358 39.7005 27.6378 38.5454 26.97C37.7874 26.5187 34.0693 26.3563 33.3654 26.7353ZM37.4264 28.2153C37.7874 28.4861 37.8595 29.4968 37.5166 29.8397C37.4083 29.948 36.7225 30.0563 35.9825 30.0924L34.6288 30.1646V29.0636V27.9626H35.8561C36.5961 27.9626 37.2098 28.0529 37.4264 28.2153Z" fill="#CCCEC1"/>
<path d="M42.9493 26.8436C42.5703 27.5475 40.4044 33.5217 40.4044 33.8466C40.4044 34.3159 40.7473 34.6407 41.2347 34.6407C41.7039 34.6407 41.9205 34.4061 42.1913 33.5037L42.4259 32.8359H43.924C45.404 32.8359 45.422 32.8359 45.5484 33.3232C45.6025 33.612 45.783 34.009 45.9274 34.2256C46.3606 34.9115 47.4435 34.6768 47.4435 33.8827C47.4435 33.4676 45.1693 27.0783 44.8986 26.7714C44.5737 26.3924 43.1659 26.4465 42.9493 26.8436ZM44.3752 29.7134C44.5737 30.3993 44.7903 31.0851 44.8445 31.2476C44.9347 31.5363 44.8084 31.5724 43.942 31.5724C43.3825 31.5724 42.9313 31.5183 42.9313 31.4461C42.9313 31.2115 43.8518 28.5041 43.924 28.5041C43.9601 28.5041 44.1766 29.0456 44.3752 29.7134Z" fill="#CCCEC1"/>
<path d="M48.5445 26.8616C48.2918 27.3308 48.2737 33.8284 48.5264 34.2977C48.743 34.6948 49.6816 34.767 49.9162 34.406C49.9884 34.2977 50.0967 33.1065 50.1508 31.7709L50.2411 29.3704L51.8655 31.9514L53.5079 34.5504H54.2118C55.2948 34.5504 55.385 34.2255 55.385 30.4352C55.385 28.5582 55.3128 27.0781 55.2045 26.8616C54.9879 26.4645 54.0855 26.3923 53.7967 26.7533C53.6704 26.8977 53.5621 28.0167 53.544 29.4426L53.4899 31.8972L51.8474 29.2621L50.223 26.6089L49.483 26.5547C48.8874 26.5186 48.6889 26.5728 48.5445 26.8616Z" fill="#CCCEC1"/>
<path d="M56.7026 26.6992C56.1792 26.9158 56.1431 27.6919 56.6304 27.9626C56.8289 28.0529 57.3884 28.1431 57.8938 28.1431H58.8143V30.9949C58.8143 34.0812 58.9587 34.6407 59.789 34.6407C60.547 34.6407 60.6192 34.37 60.6192 31.1754V28.1431H61.6841C63.2002 28.1431 63.8319 27.4392 62.9295 26.8075C62.6046 26.5729 61.9909 26.5187 59.807 26.5368C58.327 26.5368 56.9192 26.609 56.7026 26.6992Z" fill="#CCCEC1"/>
<path d="M64.951 26.645C64.3012 26.8797 64.229 27.2587 64.229 30.5977C64.229 33.3592 64.2832 33.9368 64.5178 34.1714C64.7524 34.4061 65.2758 34.4602 67.4598 34.4602C70.2032 34.4602 70.5461 34.37 70.5461 33.7022C70.5461 33.1787 69.9325 33.0163 67.9471 33.0163H66.0339V32.1138V31.2114H67.7305C69.4451 31.2114 70.0047 31.0129 70.0047 30.4172C70.0047 29.9119 69.5534 29.7675 67.7846 29.7675H66.0158L66.07 28.9011L66.1241 28.0528L68.1998 27.9626C70.2393 27.8724 70.2754 27.8724 70.3295 27.4392C70.4378 26.6631 69.9866 26.5187 67.4959 26.5367C66.2505 26.5367 65.0954 26.5909 64.951 26.645Z" fill="#CCCEC1"/>
<path d="M72.2246 26.6992C71.6832 26.9158 71.5929 27.5475 71.6651 31.0851C71.7012 33.5398 71.7734 34.1534 71.99 34.2798C72.1344 34.3881 73.4881 34.4422 75.0583 34.4061L77.8559 34.37L77.9101 33.9368C78.0184 33.1968 77.5491 33.0163 75.3832 33.0163H73.4339V32.1139V31.2114H75.0764C76.8091 31.2114 77.4047 31.031 77.4047 30.5256C77.4047 29.8939 77.0257 29.7675 75.1847 29.7675H73.4159L73.47 28.9012L73.5242 28.0529L75.5457 27.9987C77.3325 27.9626 77.6032 27.9085 77.7657 27.6017C78.0003 27.1504 77.8379 26.7534 77.3505 26.627C76.7369 26.4646 72.6759 26.5187 72.2246 26.6992Z" fill="#CCCEC1"/>
</svg>
