<svg width="24" height="25" viewBox="0 0 24 25" fill="none" xmlns="http://www.w3.org/2000/svg">
<path d="M6.75 7.25003L10.5 11M6.75 7.25003L8.5 5.50003V5.25003L7.06 4.65003C6.02501 4.2187 5.05558 3.64445 4.18 2.94403L3 2.00003H2.75L1.5 3.25003V3.50003L2.444 4.68003C3.14443 5.55561 3.71868 6.52504 4.15 7.56003L4.75 9.00003H5L6.75 7.25003ZM13.734 17.5C15.3028 19.2803 16.809 21.1148 18.25 23H18.5L22.5 19V18.75C22.5 18.75 20.03 16.898 17 14.234M17.5 12C18.3303 12.0003 19.1477 11.7937 19.8782 11.399C20.6087 11.0043 21.2294 10.4339 21.6843 9.73924C22.1392 9.04459 22.414 8.24759 22.4837 7.42019C22.5535 6.59279 22.4161 5.76104 22.084 5.00003H21.5L18.5 8.00003H16.5V6.00003L19.5 3.00003V2.41603C18.6037 2.02416 17.6121 1.90382 16.6481 2.06991C15.6841 2.236 14.79 2.68122 14.0765 3.35043C13.363 4.01964 12.8615 4.88344 12.6341 5.83485C12.4066 6.78626 12.4633 7.78349 12.797 8.70303L11 10.5C6.5 15 1.5 18.75 1.5 18.75V19L5.5 23H5.75C5.75 23 9.5 18 14 13.5L15.797 11.703C16.3431 11.9004 16.9194 12.0009 17.5 12Z" stroke="#77E200"/>
</svg>
