<svg width="77" height="38" viewBox="0 0 77 38" fill="none" xmlns="http://www.w3.org/2000/svg">
<path d="M14.7706 20.4039H0.409912V37.0624H14.7706V20.4039Z" fill="#AAAD9B"/>
<path d="M30.3279 20.4039H15.9673V37.0624H30.3279V20.4039Z" fill="#AAAD9B"/>
<path d="M45.8852 20.4039H31.5246V37.0624H45.8852V20.4039Z" fill="#AAAD9B"/>
<path d="M61.4427 20.4039H47.082V37.0624H61.4427V20.4039Z" fill="#AAAD9B"/>
<path d="M76.9999 20.4039H69.8196V37.0624H76.9999V20.4039Z" fill="#DCDCE6"/>
<path d="M69.8196 20.4039L62.6394 20.4039V37.0624L69.8196 37.0624V20.4039Z" fill="#AAAD9B"/>
<path d="M7.59028 31.631L9.77429 30.989L10.6868 34.2513L7.59028 31.631ZM12.6165 27.4143H8.77204L7.59028 23.215L6.40852 27.4143H2.56406L5.67553 30.0172L4.49377 34.2166L7.60524 31.6137L9.51999 30.0172L12.6165 27.4143Z" fill="white"/>
<path d="M23.1476 31.631L25.3316 30.989L26.2441 34.2513L23.1476 31.631ZM28.1738 27.4143H24.3294L23.1476 23.215L21.9659 27.4143H18.1214L21.2329 30.0172L20.0511 34.2166L23.1626 31.6137L25.0773 30.0172L28.1738 27.4143Z" fill="white"/>
<path d="M38.7049 31.631L40.889 30.989L41.8015 34.2513L38.7049 31.631ZM43.7312 27.4143H39.8867L38.7049 23.215L37.5232 27.4143H33.6787L36.7902 30.0172L35.6084 34.2166L38.7199 31.6137L40.6347 30.0172L43.7312 27.4143Z" fill="white"/>
<path d="M54.2623 31.631L56.4463 30.989L57.3588 34.2513L54.2623 31.631ZM59.2885 27.4143H55.444L54.2623 23.215L53.0805 27.4143H49.2361L52.3475 30.0172L51.1658 34.2166L54.2772 31.6137L56.192 30.0172L59.2885 27.4143Z" fill="white"/>
<path d="M69.8197 31.631L72.0037 30.989L72.9162 34.2513L69.8197 31.631ZM74.8459 27.4143H71.0015L69.8197 23.215L68.6379 27.4143H64.7935L67.9049 30.0172L66.7232 34.2166L69.8347 31.6137L71.7494 30.0172L74.8459 27.4143Z" fill="white"/>
<path d="M25.0862 4.92505V6.34376H22.5785V14.3191H21.1996V6.34376H18.7031V4.92505H25.0862ZM25.9925 7.51719V8.82983H26.0147C26.0536 8.6442 26.1259 8.46521 26.2316 8.29284C26.3372 8.12047 26.4651 7.95473 26.6152 7.81551C26.7653 7.66967 26.9321 7.55696 27.1156 7.46415C27.2991 7.37797 27.4881 7.33156 27.6772 7.33156C27.8218 7.33156 27.9274 7.33819 27.983 7.34482C28.0386 7.35145 28.0942 7.36471 28.1554 7.37134V8.81657C28.0664 8.79668 27.9774 8.78342 27.8829 8.77016C27.7884 8.75691 27.6994 8.75028 27.6105 8.75028C27.3992 8.75028 27.199 8.80331 27.01 8.90275C26.8209 9.0022 26.6597 9.15468 26.5207 9.34693C26.3817 9.54582 26.2705 9.78448 26.1871 10.0762C26.1037 10.3679 26.0647 10.6994 26.0647 11.0772V14.3124H24.8082V7.51719H25.9925ZM33.9323 14.3191H32.698V13.371H32.6758C32.5201 13.7158 32.2921 13.9876 31.9863 14.1931C31.6805 14.3986 31.3691 14.5047 31.0522 14.5047C30.3016 14.5047 29.7567 14.2859 29.4231 13.8417C29.0895 13.3976 28.9227 12.728 28.9227 11.833V7.51719H30.1793V11.6871C30.1793 12.2838 30.2738 12.7081 30.4684 12.9534C30.6574 13.1987 30.9299 13.3246 31.2746 13.3246C31.5415 13.3246 31.7583 13.2782 31.9363 13.1788C32.1142 13.0793 32.2587 12.9534 32.3644 12.7876C32.4756 12.6285 32.5534 12.4297 32.6035 12.2043C32.6535 11.9788 32.6758 11.7336 32.6758 11.4684V7.52382H33.9323V14.3191ZM36.073 12.138C36.1119 12.5755 36.2509 12.8805 36.49 13.0595C36.7347 13.2318 37.0238 13.3246 37.363 13.3246C37.4797 13.3246 37.6132 13.3114 37.7633 13.2915C37.9134 13.2716 38.058 13.2252 38.1859 13.1655C38.3193 13.1059 38.4249 13.0131 38.5139 12.8937C38.5973 12.7744 38.6362 12.6219 38.6307 12.4297C38.6251 12.2374 38.5639 12.0783 38.4527 11.959C38.3415 11.833 38.2025 11.7402 38.0302 11.6606C37.8578 11.5877 37.6632 11.5214 37.4408 11.4684C37.2184 11.4153 36.996 11.3557 36.768 11.296C36.5345 11.2363 36.3065 11.1568 36.0897 11.0706C35.8728 10.9844 35.6782 10.8651 35.5059 10.7126C35.3335 10.5668 35.1945 10.3745 35.0944 10.1425C34.9888 9.91044 34.9387 9.62537 34.9387 9.28064C34.9387 8.90938 35.0166 8.60443 35.1667 8.35251C35.3168 8.10058 35.5114 7.9017 35.7394 7.74922C35.9729 7.59674 36.2287 7.49067 36.5123 7.42437C36.7958 7.36471 37.0683 7.33156 37.324 7.33156C37.6187 7.33156 37.9023 7.37134 38.1692 7.44426C38.4361 7.51719 38.6807 7.63652 38.8975 7.80889C39.1144 7.97462 39.2923 8.1934 39.4369 8.45858C39.5814 8.72376 39.6704 9.0486 39.7093 9.42649H38.3971C38.336 9.06849 38.2025 8.8232 37.9857 8.70387C37.7688 8.57791 37.5186 8.51824 37.2406 8.51824C37.1517 8.51824 37.046 8.52487 36.9237 8.54476C36.8014 8.56465 36.6902 8.5978 36.579 8.6442C36.4733 8.69061 36.3844 8.76354 36.3065 8.85635C36.2342 8.94916 36.1953 9.06849 36.1953 9.22097C36.1953 9.4066 36.2509 9.55245 36.3566 9.66515C36.4622 9.77785 36.6012 9.87066 36.7736 9.95022C36.9459 10.0231 37.1405 10.0894 37.363 10.1425C37.5854 10.1955 37.8133 10.2552 38.0468 10.3148C38.2748 10.3745 38.4972 10.4541 38.7196 10.5402C38.942 10.6264 39.1366 10.7458 39.309 10.8982C39.4814 11.0507 39.6204 11.2363 39.726 11.4617C39.8317 11.6871 39.8873 11.9722 39.8873 12.3037C39.8873 12.7081 39.8094 13.0462 39.6537 13.3313C39.498 13.6097 39.2979 13.8417 39.0532 14.0141C38.8086 14.1865 38.5306 14.3191 38.2303 14.3986C37.9301 14.4782 37.6298 14.518 37.3352 14.518C36.9737 14.518 36.6401 14.4715 36.3343 14.3721C36.0285 14.2727 35.7616 14.1268 35.5392 13.9346C35.3168 13.7357 35.1389 13.4904 35.011 13.1987C34.8831 12.907 34.8164 12.5556 34.8053 12.1512H36.073V12.138ZM40.2209 7.51719H41.1716V5.4753H42.4282V7.51719H43.5625V8.63758H42.4282V12.2705C42.4282 12.4297 42.4338 12.5622 42.4449 12.6816C42.456 12.7943 42.4838 12.8937 42.5228 12.9733C42.5617 13.0528 42.6228 13.1125 42.7062 13.1523C42.7896 13.192 42.8953 13.2119 43.0399 13.2119C43.1288 13.2119 43.2178 13.2119 43.3067 13.2053C43.3957 13.1987 43.4847 13.1854 43.5736 13.1589V14.3191C43.4346 14.339 43.2956 14.3522 43.1677 14.3721C43.0343 14.392 42.9008 14.3986 42.7618 14.3986C42.4282 14.3986 42.1614 14.3588 41.9612 14.2859C41.761 14.213 41.5998 14.1003 41.4886 13.9544C41.3718 13.8086 41.2995 13.6296 41.2551 13.4108C41.2161 13.192 41.1883 12.9401 41.1828 12.6617V8.65083H40.232V7.51719H40.2209ZM44.4521 7.51719H45.642V8.43869H45.6642C45.8422 8.04092 46.0868 7.76248 46.4037 7.59011C46.7207 7.41774 47.0598 7.33156 47.4324 7.33156C47.8827 7.33156 48.2719 7.42437 48.6056 7.61663C48.9392 7.80226 49.2172 8.06081 49.4396 8.39228C49.662 8.72376 49.8232 9.10827 49.9344 9.54582C50.0456 9.98337 50.1012 10.4541 50.1012 10.9513C50.1012 11.4087 50.0512 11.8529 49.9511 12.2772C49.851 12.7081 49.7009 13.086 49.5007 13.4175C49.3006 13.7489 49.0448 14.0075 48.7334 14.2064C48.4221 14.4052 48.0607 14.5047 47.6381 14.5047C47.4546 14.5047 47.2711 14.4848 47.0876 14.445C46.9041 14.4052 46.7262 14.339 46.5594 14.2528C46.3926 14.1666 46.2314 14.0539 46.0924 13.9147C45.9478 13.7754 45.831 13.6163 45.731 13.4373H45.7087V16.8316H44.4521V7.51719ZM48.8446 10.9248C48.8446 10.6198 48.8113 10.3215 48.7446 10.0298C48.6778 9.73807 48.5778 9.48615 48.4443 9.26075C48.3109 9.03534 48.1441 8.85635 47.9495 8.72376C47.7493 8.59117 47.5213 8.51824 47.2656 8.51824C46.7373 8.51824 46.337 8.73702 46.0701 9.17456C45.8032 9.61211 45.6698 10.1955 45.6698 10.9248C45.6698 11.2695 45.7032 11.5877 45.7754 11.8794C45.8477 12.1711 45.9478 12.423 46.0924 12.6352C46.2314 12.8473 46.3982 13.0131 46.5928 13.1324C46.7874 13.2583 47.0154 13.318 47.2711 13.318C47.5602 13.318 47.7993 13.2451 47.9995 13.1059C48.1997 12.9666 48.3609 12.781 48.4888 12.5622C48.6167 12.3368 48.7112 12.0849 48.7668 11.7999C48.8168 11.5148 48.8446 11.2231 48.8446 10.9248ZM51.0631 4.92505H52.3197V6.34376H51.0631V4.92505ZM51.0631 7.51719H52.3197V14.3191H51.0631V7.51719ZM53.4429 4.92505H54.6995V14.3191H53.4429V4.92505ZM58.5526 14.5047C58.0967 14.5047 57.6908 14.4119 57.335 14.2329C56.9791 14.0539 56.6789 13.802 56.4287 13.4904C56.184 13.1722 55.995 12.7943 55.8671 12.3567C55.7392 11.9192 55.6725 11.4352 55.6725 10.9115C55.6725 10.3944 55.7392 9.91707 55.8671 9.47952C55.995 9.04198 56.184 8.66409 56.4287 8.34588C56.6733 8.02766 56.9791 7.78237 57.335 7.60337C57.6908 7.42437 58.0967 7.33156 58.5526 7.33156C59.0086 7.33156 59.4145 7.42437 59.7703 7.60337C60.1262 7.78237 60.4264 8.03429 60.6766 8.34588C60.9213 8.66409 61.1103 9.04198 61.2382 9.47952C61.3661 9.91707 61.4328 10.3944 61.4328 10.9115C61.4328 11.4352 61.3661 11.9192 61.2382 12.3567C61.1103 12.7943 60.9213 13.1722 60.6766 13.4904C60.432 13.8086 60.1262 14.0539 59.7703 14.2329C59.4145 14.4119 59.0086 14.5047 58.5526 14.5047ZM58.5526 13.318C58.8306 13.318 59.0753 13.2451 59.281 13.1059C59.4867 12.9666 59.6535 12.781 59.787 12.5556C59.9204 12.3302 60.015 12.0717 60.0817 11.7866C60.1428 11.5015 60.1762 11.2098 60.1762 10.9115C60.1762 10.6198 60.1428 10.3347 60.0817 10.043C60.0205 9.75133 59.9204 9.49941 59.787 9.27401C59.6535 9.0486 59.4867 8.86961 59.281 8.73039C59.0753 8.59117 58.8306 8.51824 58.5526 8.51824C58.2746 8.51824 58.03 8.59117 57.8243 8.73039C57.6185 8.86961 57.4517 9.05523 57.3183 9.27401C57.1848 9.49941 57.0903 9.75133 57.0236 10.043C56.9624 10.3347 56.9291 10.6198 56.9291 10.9115C56.9291 11.2098 56.9624 11.5015 57.0236 11.7866C57.0848 12.0717 57.1848 12.3302 57.3183 12.5556C57.4517 12.781 57.6185 12.9666 57.8243 13.1059C58.03 13.2517 58.2746 13.318 58.5526 13.318ZM61.7998 7.51719H62.7505V5.4753H64.0071V7.51719H65.1414V8.63758H64.0071V12.2705C64.0071 12.4297 64.0127 12.5622 64.0238 12.6816C64.0349 12.7943 64.0627 12.8937 64.1017 12.9733C64.1406 13.0528 64.2017 13.1125 64.2851 13.1523C64.3685 13.192 64.4742 13.2119 64.6188 13.2119C64.7077 13.2119 64.7967 13.2119 64.8856 13.2053C64.9746 13.1987 65.0636 13.1854 65.1525 13.1589V14.3191C65.0135 14.339 64.8745 14.3522 64.7466 14.3721C64.6132 14.392 64.4797 14.3986 64.3407 14.3986C64.0071 14.3986 63.7402 14.3588 63.5401 14.2859C63.3399 14.213 63.1787 14.1003 63.0675 13.9544C62.9507 13.8086 62.8784 13.6296 62.834 13.4108C62.795 13.192 62.7672 12.9401 62.7617 12.6617V8.65083H61.8109V7.51719H61.7998Z" fill="#AAAD9B"/>
<path d="M15.2817 6.5367H9.52137L7.74213 0L5.95732 6.5367L0.197021 6.53007L4.86198 10.5741L3.07717 17.1041L7.74213 13.0668L12.4015 17.1041L10.6223 10.5741L15.2817 6.5367Z" fill="#AAAD9B"/>
<path d="M11.0227 12.0525L10.6223 10.5741L7.74213 13.0668L11.0227 12.0525Z" fill="#005128"/>
</svg>
