<svg width="23" height="22" viewBox="0 0 23 22" fill="none" xmlns="http://www.w3.org/2000/svg">
<path d="M22.3753 20.6613C20.766 17.7681 18.2859 15.6934 15.3917 14.71C16.8233 13.8237 17.9356 12.4732 18.5577 10.866C19.1799 9.25871 19.2774 7.48351 18.8355 5.81299C18.3935 4.14247 17.4365 2.66901 16.1113 1.61887C14.7861 0.568738 13.1661 0 11.5 0C9.83391 0 8.21389 0.568738 6.88871 1.61887C5.56353 2.66901 4.60647 4.14247 4.16452 5.81299C3.72256 7.48351 3.82013 9.25871 4.44226 10.866C5.06438 12.4732 6.17666 13.8237 7.60827 14.71C4.71405 15.6923 2.23404 17.767 0.624726 20.6613C0.565709 20.7614 0.526564 20.8728 0.5096 20.9888C0.492636 21.1049 0.498196 21.2233 0.525953 21.3371C0.553709 21.4509 0.6031 21.5577 0.671211 21.6513C0.739322 21.7449 0.824773 21.8234 0.922522 21.8821C1.02027 21.9409 1.12834 21.9786 1.24035 21.9932C1.35236 22.0078 1.46605 21.9989 1.5747 21.967C1.68335 21.9352 1.78476 21.881 1.87296 21.8077C1.96116 21.7345 2.03435 21.6436 2.08822 21.5404C4.07899 17.9626 7.59771 15.8264 11.5 15.8264C15.4023 15.8264 18.921 17.9626 20.9118 21.5404C20.9657 21.6436 21.0388 21.7345 21.127 21.8077C21.2152 21.881 21.3167 21.9352 21.4253 21.967C21.534 21.9989 21.6476 22.0078 21.7596 21.9932C21.8717 21.9786 21.9797 21.9409 22.0775 21.8821C22.1752 21.8234 22.2607 21.7449 22.3288 21.6513C22.3969 21.5577 22.4463 21.4509 22.474 21.3371C22.5018 21.2233 22.5074 21.1049 22.4904 20.9888C22.4734 20.8728 22.4343 20.7614 22.3753 20.6613ZM5.58263 7.9147C5.58263 6.69764 5.92968 5.50791 6.57989 4.49597C7.2301 3.48402 8.15426 2.69531 9.23552 2.22956C10.3168 1.76381 11.5066 1.64195 12.6544 1.87939C13.8023 2.11682 14.8567 2.70289 15.6842 3.56348C16.5118 4.42407 17.0753 5.52053 17.3037 6.7142C17.532 7.90787 17.4148 9.14515 16.9669 10.2696C16.5191 11.394 15.7606 12.355 14.7875 13.0312C13.8144 13.7073 12.6703 14.0682 11.5 14.0682C9.93113 14.0665 8.427 13.4176 7.31764 12.264C6.20829 11.1104 5.58431 9.54619 5.58263 7.9147Z" fill="#0E0F0C"/>
</svg>
